#N canvas 0 82 1583 1118 12;
#X obj 343 795 cnv 15 260 290 empty empty COM_PORT_CONTROL 5 15 0 18
-261682 -66577 0;
#X text 429 854 1;
#X text 445 854 2;
#X text 458 854 3;
#X text 473 854 4;
#X text 489 854 5;
#X text 502 854 6;
#X text 520 854 7;
#X text 534 854 8;
#X text 549 854 9;
#X text 561 854 10;
#X text 577 854 11;
#X text 413 854 0;
#X obj 483 913 bng 15 250 50 0 com_close empty empty 17 7 0 10 -262144
-1 -1;
#X obj 483 949 tgl 15 0 empty empty empty 17 7 0 10 -262144 -1 -1 1
1;
#X obj 483 998 bng 15 250 50 0 empty empty empty 17 7 0 10 -262144
-1 -1;
#X obj 483 971 metro 100;
#X msg 483 1020 a;
#X text 354 972 Refresh Rate (ms);
#X text 347 999 Tranmission Status;
#X text 354 1021 Request Character;
#X obj 483 1047 s transceive;
#X obj 3 591 cnv 15 600 200 empty empty DATA_VISUALIZER 5 15 0 18 -204786
-66577 0;
#X symbolatom 110 624 40 0 0 0 - raw_data -;
#X text 354 948 Transceive On/Off;
#X text 5 624 Raw Data Input;
#X obj 113 650 hsl 256 15 0 255 0 0 empty h1 empty -2 -8 0 10 -258049
-1 -1 13100 1;
#X text 32 695 Index Flex;
#X text 32 719 Ring Force;
#X text 24 741 Pinky Force;
#X text 40 758 Vibration;
#X text 27 649 Up/Dn Accel;
#X text 18 671 L/R Tilt Pos;
#X obj 113 672 hsl 256 15 0 255 0 0 empty h2 empty -2 -8 0 10 -260097
-1 -1 12700 1;
#X obj 113 694 hsl 256 15 0 255 0 0 empty h3 empty -2 -8 0 10 -257985
-1 -1 8500 1;
#X obj 113 716 hsl 256 15 0 255 0 0 empty h4 empty -2 -8 0 10 -4034
-1 -1 0 1;
#X obj 113 738 hsl 256 15 0 255 0 0 empty h5 empty -2 -8 0 10 -4032
-1 -1 0 1;
#X obj 113 760 hsl 256 15 0 255 0 0 empty h6 empty -2 -8 0 10 -159808
-1 -1 2700 1;
#X obj 3 -4 cnv 15 600 590 empty empty ACQUISITION>PARSING+INITIALIZATION
5 15 0 18 -232576 -66577 0;
#X msg 158 71 close;
#X msg 79 71 open \$1;
#X msg 14 44 devices;
#X obj 134 248 list prepend;
#X obj 134 221 makefilename %c;
#X obj 243 249 t l;
#X obj 74 225 bng 15 50 10 0 empty empty empty 0 -6 0 10 -262144 -1
-1;
#X obj 74 274 list append;
#X obj 74 301 list2symbol;
#X obj 74 362 symbol2list;
#X obj 74 165 comport 9600;
#X obj 243 125 ascseq;
#X obj 243 98 list2symbol;
#X obj 243 71 list append;
#X obj 74 190 select 46;
#X obj 74 389 unpack f f f f f f f f f f f f f f f f f f;
#X obj 11 441 * 100;
#X obj 54 441 * 10;
#X obj 31 466 +;
#X obj 31 490 +;
#X floatatom 31 517 5 0 0 0 - - -;
#X obj 95 441 * 100;
#X obj 137 441 * 10;
#X obj 114 466 +;
#X obj 114 490 +;
#X floatatom 114 517 5 0 0 0 - - -;
#X obj 180 441 * 100;
#X obj 223 441 * 10;
#X obj 200 466 +;
#X obj 200 490 +;
#X floatatom 200 517 5 0 0 0 - - -;
#X obj 264 441 * 100;
#X obj 307 441 * 10;
#X obj 284 466 +;
#X obj 284 490 +;
#X floatatom 284 517 5 0 0 0 - - -;
#X obj 355 441 * 100;
#X obj 398 441 * 10;
#X obj 375 466 +;
#X obj 375 490 +;
#X floatatom 375 517 5 0 0 0 - - -;
#X obj 442 441 * 100;
#X obj 487 441 * 10;
#X obj 464 466 +;
#X obj 464 490 +;
#X floatatom 464 517 5 0 0 0 - - -;
#X text 92 561 Wrist Tilt;
#X text 13 561 Hand Accel;
#X text 184 561 index flex;
#X text 263 561 ring force;
#X text 352 561 pinky force;
#X text 450 561 vibration;
#X obj 31 539 s h1;
#X obj 114 539 s h2;
#X obj 200 539 s h3;
#X obj 284 539 s h4;
#X obj 375 539 s h5;
#X obj 464 539 s h6;
#X obj 79 44 r com_open;
#X obj 158 44 r com_close;
#X obj 243 44 r transceive;
#X obj 81 332 s raw_data;
#X text 166 166 baudrate;
#X obj 1112 -4 cnv 15 480 800 empty empty GESTURE_ANALYSIS_AND_SOUND_SYNTHESIS
5 15 0 18 -204800 -66577 0;
#X obj 1319 239 r h2;
#X obj 1231 270 == 0;
#X obj 1270 270 == 127;
#X obj 1252 325 +;
#X obj 1279 353 +;
#X obj 1319 270 == 255;
#X floatatom 1279 380 5 0 0 0 - - -;
#X obj 2 795 cnv 15 338 290 empty empty SYSTEM_PANEL 5 15 0 18 -261234
-1 0;
#X obj 413 872 hradio 15 1 0 12 com_open empty empty 0 -8 0 10 -262144
-1 -1 4;
#X obj 1279 433 line;
#X obj 1279 407 pack f 500;
#X obj 1279 460 s vol_slider;
#X obj 1270 299 * 0.4;
#X obj 1231 298 * 0.2;
#X obj 1319 298 * 0.6;
#X text 230 826 Master Volume;
#X obj 387 31 loadbang;
#X text 1227 210 Master Volume Control (Tilt Hand);
#X text 141 191 indentify "." by ascii code;
#X text 245 220 int -> ascii;
#X text 272 248 store string;
#X obj 396 610 cnv 15 205 170 empty empty empty 20 12 0 14 -233465
-66577 0;
#N canvas 0 0 450 300 (subpatch) 0;
#X array spectrum 256 float 1;
#A 0 0 0 0 0 0 0 0 0 0 0 0 0 0 0 0 0 0 0 0 0 0 0 0 0 0 0 0 0 0 0 0
0 0 0 0 0 0 0 0 0 0 0 0 0 0 0 0 0 0 0 0 0 0 0 0 0 0 0 0 0 0 0 0 0 0
0 0 0 0 0 0 0 0 0 0 0 0 0 0 0 0 0 0 0 0 0 0 0 0 0 0 0 0 0 0 0 0 0 0
0 0 0 0 0 0 0 0 0 0 0 0 0 0 0 0 0 0 0 0 0 0 0 0 0 0 0 0 0 0 0 0 0 0
0 0 0 0 0 0 0 0 0 0 0 0 0 0 0 0 0 0 0 0 0 0 0 0 0 0 0 0 0 0 0 0 0 0
0 0 0 0 0 0 0 0 0 0 0 0 0 0 0 0 0 0 0 0 0 0 0 0 0 0 0 0 0 0 0 0 0 0
0 0 0 0 0 0 0 0 0 0 0 0 0 0 0 0 0 0 0 0 0 0 0 0 0 0 0 0 0 0 0 0 0 0
0 0 0 0 0 0 0 0 0 0 0 0 0 0 0 0 0 0 0 0 0;
#X coords 0 150 260 0 200 150 1;
#X restore 398 629 graph;
#X text 57 826 Inst. Volume;
#X obj 4 844 cnv 15 200 230 empty empty empty 20 12 0 14 -261559 -66577
0;
#X obj 8 865 vsl 25 200 0 1 0 0 piano_vol piano_init_vol Piano 0 -9
0 10 -204800 -66577 -66577 7960 1;
#X obj 41 865 vsl 25 200 0 1 0 0 guitar_vol guitar_init_vol Gtar 0
-9 0 10 -204786 -66577 -66577 19900 1;
#X obj 212 844 cnv 15 125 230 empty empty empty 20 12 0 14 -261559
-66577 0;
#X obj 266 866 vu 25 200 vu_left L 8 10 0 20 -66577 -262144 0 0;
#X obj 303 866 vu 25 200 vu_right R 8 10 0 20 -66577 -262144 0 0;
#X obj 225 865 vsl 25 200 0 1 0 0 volume vol_slider empty 0 -9 0 10
-16662 -262144 -262144 7959 1;
#X text 369 912 Close COM Port;
#X text 348 871 Open COM;
#X obj 73 865 vsl 25 200 0 1 0 0 flute_vol flute_init_vol Flute 0 -9
0 10 -262130 -66577 -66577 19900 1;
#X obj 607 -4 cnv 15 500 1220 empty empty WAV_FILE_LOADING 5 15 0 18
-203904 -66577 0;
#X obj 1295 715 dac~;
#X obj 1296 646 *~;
#X obj 1339 687 rvu~ 20 100;
#X obj 1339 714 s vu_left;
#X obj 1212 686 rvu~ 20 100;
#X obj 1212 712 s vu_right;
#N canvas 125 480 450 300 fft 0;
#X obj 66 34 inlet~;
#X obj 65 73 rfft~;
#X obj 53 109 *~;
#X obj 95 108 *~;
#X obj 67 155 sqrt~;
#X obj 91 209 tabwrite~ spectrum;
#X obj 174 122 inlet;
#X obj 155 174 metro 50;
#X obj 192 58 block~ 1024 1;
#X connect 0 0 1 0;
#X connect 1 0 2 0;
#X connect 1 0 2 1;
#X connect 1 1 3 0;
#X connect 1 1 3 1;
#X connect 2 0 4 0;
#X connect 3 0 4 0;
#X connect 4 0 5 0;
#X connect 6 0 7 0;
#X connect 7 0 5 0;
#X restore 1372 665 pd fft;
#X obj 1411 635 tgl 15 0 empty spectrum_init empty 17 7 0 10 -262144
-1 -1 1 1;
#X text 1428 631 spectrum;
#X obj 1331 626 r volume;
#X text 1204 643 DAC Output;
#X obj 1277 594 +~;
#X obj 610 42 r gA;
#X obj 610 92 s sf_gA;
#X obj 735 43 r gC;
#X obj 735 93 s sf_gC;
#X obj 857 44 r gD;
#X obj 857 94 s sf_gD;
#X obj 982 44 r gE;
#X obj 982 94 s sf_gE;
#X obj 611 116 r gG;
#X obj 611 167 s sf_gG;
#X obj 736 116 r fA;
#X obj 736 166 s sf_fA;
#X obj 859 117 r fC;
#X obj 859 167 s sf_fC;
#X obj 983 116 r fD;
#X obj 983 166 s sf_fD;
#X obj 611 190 r fE;
#X obj 611 240 s sf_fE;
#X obj 737 189 r fG;
#X obj 737 240 s sf_fG;
#X msg 861 289 open piano/G.wav;
#X msg 738 288 open piano/E.wav;
#X msg 612 288 open piano/D.wav;
#X msg 983 214 open piano/C.wav;
#X msg 859 215 open piano/A.wav;
#X obj 859 190 r pA;
#X obj 859 240 s sf_pA;
#X obj 983 189 r pC;
#X obj 983 239 s sf_pC;
#X obj 612 263 r pD;
#X obj 612 313 s sf_pD;
#X obj 738 263 r pE;
#X obj 738 313 s sf_pE;
#X obj 861 264 r pG;
#X obj 861 314 s sf_pG;
#X obj 1111 799 cnv 15 480 286 empty empty INSTRUMENT_ASSIGNMENT 5
15 0 18 -262130 -66577 0;
#X obj 1146 932 s flute4;
#X obj 1146 886 s piano4;
#X obj 1214 887 s guitar4;
#X obj 1146 862 tgl 15 0 empty piano4_init empty 17 7 0 10 -262144
-1 -1 1 1;
#X obj 1214 863 tgl 15 0 empty guitar4_init empty 17 7 0 10 -262144
-1 -1 0 1;
#X obj 1146 910 tgl 15 0 empty flute4_init empty 17 7 0 10 -262144
-1 -1 0 1;
#X text 1143 835 Ring Finger Instrument(s);
#X obj 1375 862 tgl 15 0 empty piano5_init empty 17 7 0 10 -262144
-1 -1 0 1;
#X obj 1440 862 tgl 15 0 empty guitar5_init empty 17 7 0 10 -262144
-1 -1 0 1;
#X obj 1376 909 tgl 15 0 empty flute5_init empty 17 7 0 10 -262144
-1 -1 1 1;
#X obj 1375 886 s piano5;
#X obj 1440 886 s guitar5;
#X obj 1376 932 s flute5;
#X text 1369 834 Pinky Finger Instrument(s);
#X text 225 844 Vol;
#X text 274 845 Output;
#X obj 1215 910 tgl 15 0 empty bass4_init empty 17 7 0 10 -262144 -1
-1 0 1;
#X obj 1440 910 tgl 15 0 empty bass5_init empty 17 7 0 10 -262144 -1
-1 0 1;
#X obj 1215 933 s bass4;
#X obj 1440 933 s bass5;
#X obj 613 356 r bA;
#X msg 613 381 open bass/A.wav;
#X obj 613 406 s sf_bA;
#X obj 613 431 r bB;
#X msg 613 456 open bass/B.wav;
#X msg 729 380 open bass/C.wav;
#X msg 730 455 open bass/D.wav;
#X msg 849 379 open bass/E.wav;
#X obj 849 404 s sf_bE;
#X obj 849 354 r bE;
#X obj 730 479 s sf_bD;
#X obj 730 430 r bD;
#X obj 729 405 s sf_bC;
#X obj 729 355 r bC;
#X obj 613 481 s sf_bB;
#X obj 850 431 r bF;
#X msg 850 456 open bass/F.wav;
#X obj 850 481 s sf_bF;
#X obj 968 353 r bG;
#X msg 968 378 open bass/G.wav;
#X obj 968 402 s sf_bG;
#X obj 968 426 r bH;
#X msg 968 451 open bass/H.wav;
#X obj 968 476 s sf_bH;
#X text 610 335 load bass beats;
#X obj 105 865 vsl 25 200 0 5 0 0 bass_vol bass_init_vol Bass 0 -9
0 10 -232576 -66577 -66577 3980 1;
#X obj 1313 594 +~;
#X text 609 22 load guitar \, flute \, and piano pentatonic notes;
#X msg 610 67 open gtar/A.wav;
#X msg 735 68 open gtar/C.wav;
#X msg 857 69 open gtar/D.wav;
#X msg 982 69 open gtar/E.wav;
#X msg 611 141 open gtar/G.wav;
#X msg 736 141 open flt/A.wav;
#X msg 859 142 open flt/C.wav;
#X msg 983 141 open flt/D.wav;
#X msg 611 215 open flt/E.wav;
#X msg 737 214 open flt/G.wav;
#X msg 615 550 open elec/A.wav;
#X obj 615 525 r eA;
#X obj 615 575 s sf_eA;
#X obj 615 600 r eB;
#X obj 615 650 s sf_eB;
#X obj 616 673 r eC;
#X obj 616 723 s sf_eC;
#X obj 616 748 r eD;
#X obj 616 798 s sf_eD;
#X obj 615 872 s sf_eE;
#X obj 616 822 r eE;
#X obj 616 897 r eF;
#X obj 616 947 s sf_eF;
#X obj 731 524 r eG;
#X obj 731 574 s sf_eG;
#X obj 732 599 r eH;
#X obj 732 648 s sf_eH;
#X obj 732 672 r eI;
#X obj 732 722 s sf_eI;
#X obj 733 747 r eJ;
#X obj 733 796 s sf_eJ;
#X obj 732 821 r eK;
#X obj 732 871 s sf_eK;
#X obj 733 896 r eL;
#X obj 733 945 s sf_eL;
#X obj 851 523 r eM;
#X obj 851 574 s sf_eM;
#X obj 852 600 r eN;
#X obj 852 650 s sf_eN;
#X obj 852 671 r eO;
#X obj 852 721 s sf_eO;
#X obj 853 748 r eP;
#X obj 853 798 s sf_eP;
#X obj 852 820 r eQ;
#X obj 852 870 s sf_eQ;
#X obj 853 897 r eR;
#X obj 853 947 s sf_eR;
#X obj 970 522 r eS;
#X obj 970 571 s sf_eS;
#X obj 970 595 r eT;
#X obj 970 645 s sf_eT;
#X obj 971 670 r eU;
#X obj 971 719 s sf_eU;
#X obj 971 743 r eV;
#X msg 615 625 open elec/B.wav;
#X msg 616 698 open elec/C.wav;
#X msg 616 773 open elec/D.wav;
#X msg 616 847 open elec/E.wav;
#X msg 616 922 open elec/F.wav;
#X msg 731 549 open elec/G.wav;
#X msg 732 624 open elec/H.wav;
#X msg 732 697 open elec/I.wav;
#X msg 733 773 open elec/J.wav;
#X msg 732 846 open elec/K.wav;
#X msg 733 921 open elec/L.wav;
#X msg 851 548 open elec/M.wav;
#X msg 852 625 open elec/N.wav;
#X msg 852 696 open elec/O.wav;
#X msg 853 773 open elec/P.wav;
#X msg 852 845 open elec/Q.wav;
#X msg 853 922 open elec/R.wav;
#X msg 970 547 open elec/S.wav;
#X msg 970 620 open elec/T.wav;
#X msg 971 695 open elec/U.wav;
#X msg 971 768 open elec/V.wav;
#X msg 971 844 open elec/W.wav;
#X msg 971 917 open elec/X.wav;
#X obj 137 865 vsl 25 200 0 1 0 0 elec_vol elec_init_vol Elec 0 -9
0 10 -261682 -66577 -66577 19900 1;
#X obj 1147 957 tgl 15 0 empty elec4_init empty 17 7 0 10 -262144 -1
-1 0 1;
#X obj 1376 957 tgl 15 0 empty elec5_init empty 17 7 0 10 -262144 -1
-1 0 1;
#X obj 1147 980 s elec4;
#X obj 1376 980 s elec5;
#N canvas 0 71 1600 1118 instruments 0;
#X obj 1455 71 r h3;
#X obj 210 77 r h4;
#X obj 1274 91 <= 255;
#X obj 1274 140 +;
#X obj 1274 168 == 1;
#X obj 1318 168 +;
#X obj 1318 201 == 1;
#X obj 1364 195 +;
#X obj 1364 228 == 1;
#X obj 1408 221 +;
#X obj 1408 254 == 1;
#X floatatom 210 156 5 0 0 0 - - -;
#X floatatom 1274 194 5 0 0 0 - - -;
#X floatatom 1318 226 5 0 0 0 - - -;
#X floatatom 1364 253 5 0 0 0 - - -;
#X floatatom 1408 280 5 0 0 0 - - -;
#X floatatom 1455 309 5 0 0 0 - - -;
#X obj 17 213 &&;
#X obj 100 245 &&;
#X obj 182 272 &&;
#X obj 269 299 &&;
#X obj 354 328 &&;
#X msg 269 437 start;
#X floatatom 269 354 5 0 0 0 - - -;
#X obj 269 380 edge;
#X obj 269 545 readsf~;
#X msg 182 437 start;
#X floatatom 182 354 5 0 0 0 - - -;
#X obj 182 380 edge;
#X obj 182 544 readsf~;
#X msg 100 435 start;
#X floatatom 100 353 5 0 0 0 - - -;
#X obj 100 379 edge;
#X obj 100 543 readsf~;
#X msg 17 434 start;
#X floatatom 17 353 5 0 0 0 - - -;
#X obj 17 379 edge;
#X obj 17 541 readsf~;
#X msg 354 437 start;
#X floatatom 354 356 5 0 0 0 - - -;
#X obj 354 382 edge;
#X obj 354 546 readsf~;
#X msg 42 457 stop;
#X msg 124 458 stop;
#X msg 381 461 stop;
#X msg 294 461 stop;
#X msg 206 459 stop;
#X obj 17 408 delay;
#X obj 100 408 delay;
#X obj 182 408 delay;
#X obj 354 410 delay;
#X obj 269 408 delay;
#X obj 63 571 s pA;
#X obj 36 514 r sf_pA;
#X obj 42 491 s pA;
#X obj 124 494 s pC;
#X obj 118 516 r sf_pC;
#X obj 146 570 s pC;
#X obj 206 491 s pD;
#X obj 204 515 r sf_pD;
#X obj 228 570 s pD;
#X obj 294 495 s pE;
#X obj 288 518 r sf_pE;
#X obj 315 571 s pE;
#X obj 381 494 s pG;
#X obj 374 517 r sf_pG;
#X obj 400 572 s pG;
#X obj 83 595 +~;
#X obj 251 594 +~;
#X obj 165 596 +~;
#X obj 24 458 bng 15 250 50 0 pA_bang empty empty 17 7 0 10 -262144
-1 -1;
#X obj 361 464 bng 15 250 50 0 pG_bang empty empty 17 7 0 10 -262144
-1 -1;
#X obj 276 464 bng 15 250 50 0 pE_bang empty empty 17 7 0 10 -262144
-1 -1;
#X obj 188 462 bng 15 250 50 0 pD_bang empty empty 17 7 0 10 -262144
-1 -1;
#X obj 106 461 bng 15 250 50 0 pC_bang empty empty 17 7 0 10 -262144
-1 -1;
#X obj 437 213 &&;
#X obj 520 245 &&;
#X obj 602 272 &&;
#X obj 689 299 &&;
#X obj 774 328 &&;
#X msg 689 437 start;
#X floatatom 689 354 5 0 0 0 - - -;
#X obj 689 380 edge;
#X obj 689 545 readsf~;
#X msg 602 437 start;
#X floatatom 602 354 5 0 0 0 - - -;
#X obj 602 380 edge;
#X obj 602 544 readsf~;
#X msg 520 435 start;
#X floatatom 520 353 5 0 0 0 - - -;
#X obj 520 379 edge;
#X obj 520 543 readsf~;
#X msg 437 434 start;
#X floatatom 437 353 5 0 0 0 - - -;
#X obj 437 379 edge;
#X obj 437 541 readsf~;
#X msg 774 437 start;
#X floatatom 774 356 5 0 0 0 - - -;
#X obj 774 382 edge;
#X obj 774 546 readsf~;
#X msg 462 457 stop;
#X msg 544 458 stop;
#X msg 801 461 stop;
#X msg 714 461 stop;
#X msg 626 459 stop;
#X obj 437 408 delay;
#X obj 520 408 delay;
#X obj 602 408 delay;
#X obj 774 410 delay;
#X obj 689 408 delay;
#X obj 584 597 +~;
#X obj 672 593 +~;
#X obj 335 595 +~;
#X obj 502 597 +~;
#X obj 444 458 bng 15 250 50 0 gA_bang empty empty 17 7 0 10 -262144
-1 -1;
#X obj 781 464 bng 15 250 50 0 gG_bang empty empty 17 7 0 10 -262144
-1 -1;
#X obj 696 464 bng 15 250 50 0 gE_bang empty empty 17 7 0 10 -262144
-1 -1;
#X obj 608 462 bng 15 250 50 0 gD_bang empty empty 17 7 0 10 -262144
-1 -1;
#X obj 526 461 bng 15 250 50 0 gC_bang empty empty 17 7 0 10 -262144
-1 -1;
#X obj 462 491 s gA;
#X obj 456 514 r sf_gA;
#X obj 483 571 s gA;
#X obj 544 494 s gC;
#X obj 538 516 r sf_gC;
#X obj 566 570 s gC;
#X obj 626 491 s gD;
#X obj 624 515 r sf_gD;
#X obj 648 570 s gD;
#X obj 714 495 s gE;
#X obj 708 518 r sf_gE;
#X obj 735 571 s gE;
#X obj 801 494 s gG;
#X obj 794 517 r sf_gG;
#X obj 820 572 s gG;
#X obj 318 649 *~;
#X obj 211 624 r piano_vol;
#X obj 758 644 *~;
#X obj 643 620 r guitar_vol;
#X text 1279 71 Note Select (Flex Index);
#X floatatom 296 625 5 0 0 0 - - -;
#X floatatom 735 621 5 0 0 0 - - -;
#X obj 1455 201 <= 80;
#X obj 1408 175 <= 110;
#X obj 1364 148 <= 161;
#X obj 1318 120 <= 212;
#X obj 858 213 &&;
#X obj 941 245 &&;
#X obj 1023 272 &&;
#X obj 1110 299 &&;
#X obj 1195 328 &&;
#X msg 1110 437 start;
#X floatatom 1110 354 5 0 0 0 - - -;
#X obj 1110 380 edge;
#X obj 1110 545 readsf~;
#X msg 1023 437 start;
#X floatatom 1023 354 5 0 0 0 - - -;
#X obj 1023 380 edge;
#X obj 1023 544 readsf~;
#X msg 941 435 start;
#X floatatom 941 353 5 0 0 0 - - -;
#X obj 941 379 edge;
#X obj 941 543 readsf~;
#X msg 858 434 start;
#X floatatom 858 353 5 0 0 0 - - -;
#X obj 858 379 edge;
#X obj 858 541 readsf~;
#X msg 1195 437 start;
#X floatatom 1195 356 5 0 0 0 - - -;
#X obj 1195 382 edge;
#X obj 1195 546 readsf~;
#X msg 883 457 stop;
#X msg 965 458 stop;
#X msg 1222 461 stop;
#X msg 1135 461 stop;
#X msg 1047 459 stop;
#X obj 858 408 delay;
#X obj 941 408 delay;
#X obj 1023 408 delay;
#X obj 1195 410 delay;
#X obj 1110 408 delay;
#X obj 1023 594 +~;
#X obj 1109 595 +~;
#X obj 942 596 +~;
#X obj 865 458 bng 15 250 50 0 fA_bang empty empty 17 7 0 10 -262144
-1 -1;
#X obj 1202 464 bng 15 250 50 0 fG_bang empty empty 17 7 0 10 -262144
-1 -1;
#X obj 1117 464 bng 15 250 50 0 fE_bang empty empty 17 7 0 10 -262144
-1 -1;
#X obj 1029 462 bng 15 250 50 0 fD_bang empty empty 17 7 0 10 -262144
-1 -1;
#X obj 947 461 bng 15 250 50 0 fC_bang empty empty 17 7 0 10 -262144
-1 -1;
#X obj 859 594 +~;
#X obj 883 491 s fA;
#X obj 877 514 r sf_fA;
#X obj 904 571 s fA;
#X obj 965 494 s fC;
#X obj 959 516 r sf_fC;
#X obj 987 570 s fC;
#X obj 1047 491 s fD;
#X obj 1045 515 r sf_fD;
#X obj 1069 570 s fD;
#X obj 1135 495 s fE;
#X obj 1129 518 r sf_fE;
#X obj 1156 571 s fE;
#X obj 1222 494 s fG;
#X obj 1215 517 r sf_fG;
#X obj 1241 573 s fG;
#X text 139 51 Piano Note Hit;
#X text 554 49 Guitar Note Hit;
#X text 961 52 Flute Note Hit;
#X obj 860 648 *~;
#X floatatom 867 625 5 0 0 0 - - -;
#X obj 210 130 &&;
#X obj 107 78 r h5;
#X obj 127 130 &&;
#X obj 145 104 r piano5;
#X obj 107 105 > 50;
#X obj 255 103 r piano4;
#X obj 909 625 r flute_vol;
#X floatatom 127 156 5 0 0 0 - - -;
#X obj 100 219 ||;
#X obj 182 248 ||;
#X obj 269 275 ||;
#X obj 354 304 ||;
#X obj 17 186 ||;
#X obj 437 185 ||;
#X obj 520 218 ||;
#X obj 602 247 ||;
#X obj 689 274 ||;
#X obj 774 303 ||;
#X obj 858 187 ||;
#X obj 941 220 ||;
#X obj 1023 249 ||;
#X obj 1110 276 ||;
#X obj 1195 305 ||;
#X obj 636 74 r h4;
#X floatatom 636 153 5 0 0 0 - - -;
#X obj 636 127 &&;
#X obj 528 75 r h5;
#X obj 548 127 &&;
#X obj 528 102 > 50;
#X floatatom 548 153 5 0 0 0 - - -;
#X obj 1049 75 r h4;
#X floatatom 1049 154 5 0 0 0 - - -;
#X obj 1049 128 &&;
#X obj 946 76 r h5;
#X obj 966 128 &&;
#X obj 946 103 > 50;
#X floatatom 966 154 5 0 0 0 - - -;
#X obj 566 101 r guitar5;
#X obj 681 100 r guitar4;
#X obj 984 102 r flute5;
#X obj 1094 101 r flute4;
#X obj 757 592 +~;
#X obj 488 673 +~;
#X obj 762 749 +~;
#X obj 763 783 s~ instruments;
#X obj 210 103 > 50;
#X obj 636 100 > 50;
#X obj 1049 101 > 50;
#X connect 0 0 2 0;
#X connect 0 0 141 0;
#X connect 0 0 142 0;
#X connect 0 0 143 0;
#X connect 0 0 144 0;
#X connect 1 0 254 0;
#X connect 2 0 3 0;
#X connect 3 0 4 0;
#X connect 4 0 12 0;
#X connect 5 0 6 0;
#X connect 6 0 13 0;
#X connect 7 0 8 0;
#X connect 8 0 14 0;
#X connect 9 0 10 0;
#X connect 10 0 15 0;
#X connect 11 0 217 1;
#X connect 11 0 218 1;
#X connect 11 0 219 1;
#X connect 11 0 220 1;
#X connect 11 0 221 1;
#X connect 12 0 75 1;
#X connect 12 0 145 1;
#X connect 12 0 17 1;
#X connect 13 0 18 1;
#X connect 13 0 76 1;
#X connect 13 0 146 1;
#X connect 14 0 19 1;
#X connect 14 0 77 1;
#X connect 14 0 147 1;
#X connect 15 0 20 1;
#X connect 15 0 78 1;
#X connect 15 0 148 1;
#X connect 16 0 21 1;
#X connect 16 0 79 1;
#X connect 16 0 149 1;
#X connect 17 0 35 0;
#X connect 18 0 31 0;
#X connect 19 0 27 0;
#X connect 20 0 23 0;
#X connect 21 0 39 0;
#X connect 22 0 25 0;
#X connect 22 0 72 0;
#X connect 23 0 24 0;
#X connect 24 0 51 0;
#X connect 24 0 45 0;
#X connect 25 0 68 1;
#X connect 25 1 63 0;
#X connect 26 0 29 0;
#X connect 26 0 73 0;
#X connect 27 0 28 0;
#X connect 28 0 49 0;
#X connect 28 0 46 0;
#X connect 29 0 69 1;
#X connect 29 1 60 0;
#X connect 30 0 33 0;
#X connect 30 0 74 0;
#X connect 31 0 32 0;
#X connect 32 0 48 0;
#X connect 32 0 43 0;
#X connect 33 0 67 1;
#X connect 33 1 57 0;
#X connect 34 0 70 0;
#X connect 34 0 37 0;
#X connect 35 0 36 0;
#X connect 36 0 42 0;
#X connect 36 0 47 0;
#X connect 37 0 67 0;
#X connect 37 1 52 0;
#X connect 38 0 41 0;
#X connect 38 0 71 0;
#X connect 39 0 40 0;
#X connect 40 0 50 0;
#X connect 40 0 44 0;
#X connect 41 0 112 1;
#X connect 41 1 66 0;
#X connect 42 0 37 0;
#X connect 42 0 54 0;
#X connect 43 0 33 0;
#X connect 43 0 55 0;
#X connect 44 0 41 0;
#X connect 44 0 64 0;
#X connect 45 0 25 0;
#X connect 45 0 61 0;
#X connect 46 0 29 0;
#X connect 46 0 58 0;
#X connect 47 0 34 0;
#X connect 48 0 30 0;
#X connect 49 0 26 0;
#X connect 50 0 38 0;
#X connect 51 0 22 0;
#X connect 53 0 37 0;
#X connect 56 0 33 0;
#X connect 59 0 29 0;
#X connect 62 0 25 0;
#X connect 65 0 41 0;
#X connect 67 0 69 0;
#X connect 68 0 112 0;
#X connect 69 0 68 0;
#X connect 75 0 93 0;
#X connect 76 0 89 0;
#X connect 77 0 85 0;
#X connect 78 0 81 0;
#X connect 79 0 97 0;
#X connect 80 0 83 0;
#X connect 80 0 116 0;
#X connect 81 0 82 0;
#X connect 82 0 109 0;
#X connect 82 0 103 0;
#X connect 83 0 111 1;
#X connect 83 1 130 0;
#X connect 84 0 87 0;
#X connect 84 0 117 0;
#X connect 85 0 86 0;
#X connect 86 0 107 0;
#X connect 86 0 104 0;
#X connect 87 0 110 1;
#X connect 87 1 127 0;
#X connect 88 0 91 0;
#X connect 88 0 118 0;
#X connect 89 0 90 0;
#X connect 90 0 106 0;
#X connect 90 0 101 0;
#X connect 91 0 113 1;
#X connect 91 1 124 0;
#X connect 92 0 114 0;
#X connect 92 0 95 0;
#X connect 93 0 94 0;
#X connect 94 0 100 0;
#X connect 94 0 105 0;
#X connect 95 0 113 0;
#X connect 95 1 121 0;
#X connect 96 0 99 0;
#X connect 96 0 115 0;
#X connect 97 0 98 0;
#X connect 98 0 108 0;
#X connect 98 0 102 0;
#X connect 99 0 250 1;
#X connect 99 1 133 0;
#X connect 100 0 95 0;
#X connect 100 0 119 0;
#X connect 101 0 91 0;
#X connect 101 0 122 0;
#X connect 102 0 99 0;
#X connect 102 0 131 0;
#X connect 103 0 83 0;
#X connect 103 0 128 0;
#X connect 104 0 87 0;
#X connect 104 0 125 0;
#X connect 105 0 92 0;
#X connect 106 0 88 0;
#X connect 107 0 84 0;
#X connect 108 0 96 0;
#X connect 109 0 80 0;
#X connect 110 0 111 0;
#X connect 111 0 250 0;
#X connect 112 0 134 1;
#X connect 113 0 110 0;
#X connect 120 0 95 0;
#X connect 123 0 91 0;
#X connect 126 0 87 0;
#X connect 129 0 83 0;
#X connect 132 0 99 0;
#X connect 134 0 251 0;
#X connect 135 0 139 0;
#X connect 136 0 251 1;
#X connect 137 0 140 0;
#X connect 139 0 134 0;
#X connect 140 0 136 0;
#X connect 141 0 9 1;
#X connect 141 0 16 0;
#X connect 142 0 7 1;
#X connect 142 0 9 0;
#X connect 143 0 5 1;
#X connect 143 0 7 0;
#X connect 144 0 3 1;
#X connect 144 0 5 0;
#X connect 145 0 163 0;
#X connect 146 0 159 0;
#X connect 147 0 155 0;
#X connect 148 0 151 0;
#X connect 149 0 167 0;
#X connect 150 0 153 0;
#X connect 150 0 185 0;
#X connect 151 0 152 0;
#X connect 152 0 179 0;
#X connect 152 0 173 0;
#X connect 153 0 181 0;
#X connect 153 1 200 0;
#X connect 154 0 157 0;
#X connect 154 0 186 0;
#X connect 155 0 156 0;
#X connect 156 0 177 0;
#X connect 156 0 174 0;
#X connect 157 0 180 0;
#X connect 157 1 197 0;
#X connect 158 0 161 0;
#X connect 158 0 187 0;
#X connect 159 0 160 0;
#X connect 160 0 176 0;
#X connect 160 0 171 0;
#X connect 161 0 182 0;
#X connect 161 1 194 0;
#X connect 162 0 183 0;
#X connect 162 0 165 0;
#X connect 163 0 164 0;
#X connect 164 0 170 0;
#X connect 164 0 175 0;
#X connect 165 0 188 0;
#X connect 165 1 191 0;
#X connect 166 0 169 0;
#X connect 166 0 184 0;
#X connect 167 0 168 0;
#X connect 168 0 178 0;
#X connect 168 0 172 0;
#X connect 169 0 181 1;
#X connect 169 1 203 0;
#X connect 170 0 165 0;
#X connect 170 0 189 0;
#X connect 171 0 161 0;
#X connect 171 0 192 0;
#X connect 172 0 169 0;
#X connect 172 0 201 0;
#X connect 173 0 153 0;
#X connect 173 0 198 0;
#X connect 174 0 157 0;
#X connect 174 0 195 0;
#X connect 175 0 162 0;
#X connect 176 0 158 0;
#X connect 177 0 154 0;
#X connect 178 0 166 0;
#X connect 179 0 150 0;
#X connect 180 0 182 1;
#X connect 181 0 180 1;
#X connect 182 0 188 1;
#X connect 188 0 207 0;
#X connect 190 0 165 0;
#X connect 193 0 161 0;
#X connect 196 0 157 0;
#X connect 199 0 153 0;
#X connect 202 0 169 0;
#X connect 207 0 252 1;
#X connect 209 0 11 0;
#X connect 210 0 213 0;
#X connect 211 0 216 0;
#X connect 212 0 211 1;
#X connect 213 0 211 0;
#X connect 214 0 209 1;
#X connect 215 0 207 1;
#X connect 215 0 208 0;
#X connect 216 0 217 0;
#X connect 216 0 218 0;
#X connect 216 0 219 0;
#X connect 216 0 220 0;
#X connect 216 0 221 0;
#X connect 217 0 18 0;
#X connect 218 0 19 0;
#X connect 219 0 20 0;
#X connect 220 0 21 0;
#X connect 221 0 17 0;
#X connect 222 0 75 0;
#X connect 223 0 76 0;
#X connect 224 0 77 0;
#X connect 225 0 78 0;
#X connect 226 0 79 0;
#X connect 227 0 145 0;
#X connect 228 0 146 0;
#X connect 229 0 147 0;
#X connect 230 0 148 0;
#X connect 231 0 149 0;
#X connect 232 0 255 0;
#X connect 233 0 222 1;
#X connect 233 0 223 1;
#X connect 233 0 224 1;
#X connect 233 0 225 1;
#X connect 233 0 226 1;
#X connect 234 0 233 0;
#X connect 235 0 237 0;
#X connect 236 0 238 0;
#X connect 237 0 236 0;
#X connect 238 0 222 0;
#X connect 238 0 223 0;
#X connect 238 0 224 0;
#X connect 238 0 225 0;
#X connect 238 0 226 0;
#X connect 239 0 256 0;
#X connect 240 0 227 1;
#X connect 240 0 228 1;
#X connect 240 0 229 1;
#X connect 240 0 230 1;
#X connect 240 0 231 1;
#X connect 241 0 240 0;
#X connect 242 0 244 0;
#X connect 243 0 245 0;
#X connect 244 0 243 0;
#X connect 245 0 227 0;
#X connect 245 0 228 0;
#X connect 245 0 229 0;
#X connect 245 0 230 0;
#X connect 245 0 231 0;
#X connect 246 0 236 1;
#X connect 247 0 234 1;
#X connect 248 0 243 1;
#X connect 249 0 241 1;
#X connect 250 0 136 1;
#X connect 251 0 252 0;
#X connect 252 0 253 0;
#X connect 254 0 209 0;
#X connect 255 0 234 0;
#X connect 256 0 241 0;
#X restore 1117 92 pd instruments;
#N canvas 0 0 1600 1118 bass_beat 0;
#X obj 513 50 r h4;
#X floatatom 513 129 5 0 0 0 - - -;
#X obj 173 209 &&;
#X obj 256 241 &&;
#X obj 338 268 &&;
#X obj 425 295 &&;
#X obj 510 324 &&;
#X msg 425 510 start;
#X floatatom 425 427 5 0 0 0 - - -;
#X obj 425 453 edge;
#X obj 425 618 readsf~;
#X msg 338 510 start;
#X floatatom 338 427 5 0 0 0 - - -;
#X obj 338 453 edge;
#X obj 338 617 readsf~;
#X msg 256 508 start;
#X floatatom 256 426 5 0 0 0 - - -;
#X obj 256 452 edge;
#X obj 256 616 readsf~;
#X msg 173 507 start;
#X floatatom 173 426 5 0 0 0 - - -;
#X obj 173 452 edge;
#X obj 173 614 readsf~;
#X msg 510 510 start;
#X floatatom 510 429 5 0 0 0 - - -;
#X obj 510 455 edge;
#X obj 510 619 readsf~;
#X msg 198 530 stop;
#X msg 280 531 stop;
#X msg 537 534 stop;
#X msg 450 534 stop;
#X msg 362 532 stop;
#X obj 173 481 delay;
#X obj 256 481 delay;
#X obj 338 481 delay;
#X obj 510 483 delay;
#X obj 425 481 delay;
#X obj 174 666 +~;
#X obj 339 669 +~;
#X obj 256 670 +~;
#X obj 180 531 bng 15 250 50 0 bA_bang empty empty 17 7 0 10 -262144
-1 -1;
#X obj 517 537 bng 15 250 50 0 bE_bang empty empty 17 7 0 10 -262144
-1 -1;
#X obj 432 537 bng 15 250 50 0 bD_bang empty empty 17 7 0 10 -262144
-1 -1;
#X obj 344 535 bng 15 250 50 0 bC_bang empty empty 17 7 0 10 -262144
-1 -1;
#X obj 262 534 bng 15 250 50 0 bB_bang empty empty 17 7 0 10 -262144
-1 -1;
#X obj 425 670 +~;
#X obj 156 698 *~;
#X floatatom 134 674 5 0 0 0 - - -;
#X obj 513 103 &&;
#X obj 410 51 r h5;
#X obj 430 103 &&;
#X obj 410 78 > 50;
#X floatatom 430 129 5 0 0 0 - - -;
#X obj 256 215 ||;
#X obj 338 244 ||;
#X obj 425 271 ||;
#X obj 510 300 ||;
#X obj 173 182 ||;
#X text 442 24 Bass Beat Hit;
#X obj 448 77 r bass5;
#X obj 558 76 r bass4;
#X obj 198 564 s bA;
#X obj 192 587 r sf_bA;
#X obj 219 644 s bA;
#X obj 280 567 s bB;
#X obj 274 589 r sf_bB;
#X obj 302 643 s bB;
#X obj 362 564 s bC;
#X obj 360 588 r sf_bC;
#X obj 384 643 s bC;
#X obj 450 568 s bD;
#X obj 444 591 r sf_bD;
#X obj 471 644 s bD;
#X obj 537 567 s bE;
#X obj 530 590 r sf_bE;
#X obj 556 645 s bE;
#X obj 49 673 r bass_vol;
#X obj 590 345 &&;
#X msg 590 510 start;
#X floatatom 590 429 5 0 0 0 - - -;
#X obj 590 455 edge;
#X obj 590 619 readsf~;
#X msg 617 534 stop;
#X obj 590 483 delay;
#X obj 597 537 bng 15 250 50 0 bF_bang empty empty 17 7 0 10 -262144
-1 -1;
#X obj 510 671 +~;
#X obj 590 321 ||;
#X obj 617 567 s bF;
#X obj 610 590 r sf_bF;
#X obj 636 645 s bF;
#X obj 670 372 &&;
#X msg 670 511 start;
#X floatatom 670 430 5 0 0 0 - - -;
#X obj 670 456 edge;
#X obj 670 620 readsf~;
#X msg 697 535 stop;
#X obj 670 484 delay;
#X obj 677 538 bng 15 250 50 0 bG_bang empty empty 17 7 0 10 -262144
-1 -1;
#X obj 591 670 +~;
#X obj 670 348 ||;
#X obj 697 568 s bG;
#X obj 690 591 r sf_bG;
#X obj 716 646 s bG;
#X obj 750 401 &&;
#X msg 750 510 start;
#X floatatom 750 429 5 0 0 0 - - -;
#X obj 750 455 edge;
#X obj 750 619 readsf~;
#X msg 777 534 stop;
#X obj 750 483 delay;
#X obj 757 537 bng 15 250 50 0 bH_bang empty empty 17 7 0 10 -262144
-1 -1;
#X obj 670 670 +~;
#X obj 750 377 ||;
#X obj 777 567 s bH;
#X obj 770 590 r sf_bH;
#X obj 796 645 s bH;
#X obj 1154 67 r h3;
#X obj 839 87 <= 255;
#X obj 839 136 +;
#X obj 839 164 == 1;
#X obj 883 164 +;
#X obj 883 197 == 1;
#X obj 929 191 +;
#X obj 929 224 == 1;
#X obj 973 217 +;
#X obj 973 250 == 1;
#X floatatom 839 190 5 0 0 0 - - -;
#X floatatom 883 222 5 0 0 0 - - -;
#X floatatom 929 249 5 0 0 0 - - -;
#X floatatom 973 276 5 0 0 0 - - -;
#X floatatom 1020 305 5 0 0 0 - - -;
#X text 977 66 Note Select (Flex Index);
#X obj 1063 268 +;
#X obj 1063 301 == 1;
#X obj 1107 294 +;
#X obj 1107 327 == 1;
#X floatatom 1063 326 5 0 0 0 - - -;
#X floatatom 1107 353 5 0 0 0 - - -;
#X floatatom 1154 382 5 0 0 0 - - -;
#X obj 1020 241 +;
#X obj 1020 278 == 1;
#X obj 883 116 <= 223;
#X obj 929 144 <= 191;
#X obj 973 171 <= 159;
#X obj 1020 197 <= 127;
#X obj 1063 221 <= 95;
#X obj 1107 248 <= 63;
#X obj 1154 274 <= 31;
#X obj 155 754 s~ bass_beat;
#X obj 513 76 > 50;
#X connect 0 0 149 0;
#X connect 1 0 53 1;
#X connect 1 0 54 1;
#X connect 1 0 55 1;
#X connect 1 0 56 1;
#X connect 1 0 57 1;
#X connect 1 0 86 1;
#X connect 1 0 99 1;
#X connect 1 0 112 1;
#X connect 2 0 20 0;
#X connect 3 0 16 0;
#X connect 4 0 12 0;
#X connect 5 0 8 0;
#X connect 6 0 24 0;
#X connect 7 0 10 0;
#X connect 7 0 42 0;
#X connect 8 0 9 0;
#X connect 9 0 36 0;
#X connect 9 0 30 0;
#X connect 10 0 45 0;
#X connect 10 1 72 0;
#X connect 11 0 14 0;
#X connect 11 0 43 0;
#X connect 12 0 13 0;
#X connect 13 0 34 0;
#X connect 13 0 31 0;
#X connect 14 0 38 0;
#X connect 14 1 69 0;
#X connect 15 0 18 0;
#X connect 15 0 44 0;
#X connect 16 0 17 0;
#X connect 17 0 33 0;
#X connect 17 0 28 0;
#X connect 18 0 39 0;
#X connect 18 1 66 0;
#X connect 19 0 40 0;
#X connect 19 0 22 0;
#X connect 20 0 21 0;
#X connect 21 0 27 0;
#X connect 21 0 32 0;
#X connect 22 0 37 0;
#X connect 22 1 63 0;
#X connect 23 0 26 0;
#X connect 23 0 41 0;
#X connect 24 0 25 0;
#X connect 25 0 35 0;
#X connect 25 0 29 0;
#X connect 26 0 85 0;
#X connect 26 1 75 0;
#X connect 27 0 22 0;
#X connect 27 0 61 0;
#X connect 28 0 18 0;
#X connect 28 0 64 0;
#X connect 29 0 26 0;
#X connect 29 0 73 0;
#X connect 30 0 10 0;
#X connect 30 0 70 0;
#X connect 31 0 14 0;
#X connect 31 0 67 0;
#X connect 32 0 19 0;
#X connect 33 0 15 0;
#X connect 34 0 11 0;
#X connect 35 0 23 0;
#X connect 36 0 7 0;
#X connect 37 0 46 1;
#X connect 38 0 39 1;
#X connect 39 0 37 1;
#X connect 45 0 38 1;
#X connect 46 0 148 0;
#X connect 47 0 46 0;
#X connect 48 0 1 0;
#X connect 49 0 51 0;
#X connect 50 0 52 0;
#X connect 51 0 50 0;
#X connect 52 0 53 0;
#X connect 52 0 54 0;
#X connect 52 0 55 0;
#X connect 52 0 56 0;
#X connect 52 0 57 0;
#X connect 52 0 86 0;
#X connect 52 0 99 0;
#X connect 52 0 112 0;
#X connect 53 0 3 0;
#X connect 54 0 4 0;
#X connect 55 0 5 0;
#X connect 56 0 6 0;
#X connect 57 0 2 0;
#X connect 59 0 50 1;
#X connect 60 0 48 1;
#X connect 62 0 22 0;
#X connect 65 0 18 0;
#X connect 68 0 14 0;
#X connect 71 0 10 0;
#X connect 74 0 26 0;
#X connect 76 0 47 0;
#X connect 77 0 79 0;
#X connect 78 0 81 0;
#X connect 78 0 84 0;
#X connect 79 0 80 0;
#X connect 80 0 83 0;
#X connect 80 0 82 0;
#X connect 81 0 98 0;
#X connect 81 1 89 0;
#X connect 82 0 81 0;
#X connect 82 0 87 0;
#X connect 83 0 78 0;
#X connect 85 0 45 1;
#X connect 86 0 77 0;
#X connect 88 0 81 0;
#X connect 90 0 92 0;
#X connect 91 0 94 0;
#X connect 91 0 97 0;
#X connect 92 0 93 0;
#X connect 93 0 96 0;
#X connect 93 0 95 0;
#X connect 94 0 111 0;
#X connect 94 1 102 0;
#X connect 95 0 94 0;
#X connect 95 0 100 0;
#X connect 96 0 91 0;
#X connect 98 0 85 1;
#X connect 99 0 90 0;
#X connect 101 0 94 0;
#X connect 103 0 105 0;
#X connect 104 0 107 0;
#X connect 104 0 110 0;
#X connect 105 0 106 0;
#X connect 106 0 109 0;
#X connect 106 0 108 0;
#X connect 107 0 111 1;
#X connect 107 1 115 0;
#X connect 108 0 107 0;
#X connect 108 0 113 0;
#X connect 109 0 104 0;
#X connect 111 0 98 1;
#X connect 112 0 103 0;
#X connect 114 0 107 0;
#X connect 116 0 117 0;
#X connect 116 0 141 0;
#X connect 116 0 142 0;
#X connect 116 0 143 0;
#X connect 116 0 144 0;
#X connect 116 0 145 0;
#X connect 116 0 146 0;
#X connect 116 0 147 0;
#X connect 117 0 118 0;
#X connect 118 0 119 0;
#X connect 119 0 126 0;
#X connect 120 0 121 0;
#X connect 121 0 127 0;
#X connect 122 0 123 0;
#X connect 123 0 128 0;
#X connect 124 0 125 0;
#X connect 125 0 129 0;
#X connect 126 0 2 1;
#X connect 127 0 3 1;
#X connect 128 0 4 1;
#X connect 129 0 5 1;
#X connect 130 0 6 1;
#X connect 132 0 133 0;
#X connect 133 0 136 0;
#X connect 134 0 135 0;
#X connect 135 0 137 0;
#X connect 136 0 77 1;
#X connect 137 0 90 1;
#X connect 138 0 103 1;
#X connect 139 0 140 0;
#X connect 140 0 130 0;
#X connect 141 0 118 1;
#X connect 141 0 120 0;
#X connect 142 0 120 1;
#X connect 142 0 122 0;
#X connect 143 0 122 1;
#X connect 143 0 124 0;
#X connect 144 0 124 1;
#X connect 144 0 139 0;
#X connect 145 0 132 0;
#X connect 145 0 139 1;
#X connect 146 0 132 1;
#X connect 146 0 134 0;
#X connect 147 0 134 1;
#X connect 147 0 138 0;
#X connect 149 0 48 0;
#X restore 1130 117 pd bass_beat;
#X obj 1253 532 r~ bass_beat;
#X obj 1147 532 r~ instruments;
#N canvas 0 0 1583 1101 electronic 0;
#X obj 1326 29 r h4;
#X floatatom 1326 108 5 0 0 0 - - -;
#X obj 183 219 &&;
#X obj 266 251 &&;
#X obj 348 278 &&;
#X obj 435 305 &&;
#X obj 520 334 &&;
#X msg 435 1126 start;
#X floatatom 435 1043 5 0 0 0 - - -;
#X obj 435 1069 edge;
#X obj 435 1234 readsf~;
#X msg 348 1126 start;
#X floatatom 348 1043 5 0 0 0 - - -;
#X obj 348 1069 edge;
#X obj 348 1233 readsf~;
#X msg 266 1124 start;
#X floatatom 266 1042 5 0 0 0 - - -;
#X obj 266 1068 edge;
#X obj 266 1232 readsf~;
#X msg 183 1123 start;
#X floatatom 183 1042 5 0 0 0 - - -;
#X obj 183 1068 edge;
#X obj 183 1230 readsf~;
#X msg 520 1126 start;
#X floatatom 520 1045 5 0 0 0 - - -;
#X obj 520 1071 edge;
#X obj 520 1235 readsf~;
#X msg 208 1146 stop;
#X msg 290 1147 stop;
#X msg 547 1150 stop;
#X msg 460 1150 stop;
#X msg 372 1148 stop;
#X obj 183 1097 delay;
#X obj 266 1097 delay;
#X obj 348 1097 delay;
#X obj 520 1099 delay;
#X obj 435 1097 delay;
#X obj 184 1282 +~;
#X obj 349 1285 +~;
#X obj 266 1286 +~;
#X obj 190 1147 bng 15 250 50 0 eA_bang empty empty 17 7 0 10 -262144
-1 -1;
#X obj 527 1153 bng 15 250 50 0 eE_bang empty empty 17 7 0 10 -262144
-1 -1;
#X obj 442 1153 bng 15 250 50 0 eD_bang empty empty 17 7 0 10 -262144
-1 -1;
#X obj 354 1151 bng 15 250 50 0 eC_bang empty empty 17 7 0 10 -262144
-1 -1;
#X obj 272 1150 bng 15 250 50 0 eB_bang empty empty 17 7 0 10 -262144
-1 -1;
#X obj 435 1286 +~;
#X obj 166 1314 *~;
#X floatatom 144 1290 5 0 0 0 - - -;
#X obj 1326 82 &&;
#X obj 1223 30 r h5;
#X obj 1243 82 &&;
#X obj 1223 57 > 50;
#X floatatom 1243 108 5 0 0 0 - - -;
#X obj 266 225 ||;
#X obj 348 254 ||;
#X obj 435 281 ||;
#X obj 520 310 ||;
#X obj 183 192 ||;
#X obj 600 355 &&;
#X msg 600 1126 start;
#X floatatom 600 1045 5 0 0 0 - - -;
#X obj 600 1071 edge;
#X obj 600 1235 readsf~;
#X msg 627 1150 stop;
#X obj 600 1099 delay;
#X obj 607 1153 bng 15 250 50 0 eF_bang empty empty 17 7 0 10 -262144
-1 -1;
#X obj 520 1287 +~;
#X obj 600 331 ||;
#X obj 680 382 &&;
#X msg 680 1127 start;
#X floatatom 680 1046 5 0 0 0 - - -;
#X obj 680 1072 edge;
#X obj 680 1236 readsf~;
#X msg 707 1151 stop;
#X obj 680 1100 delay;
#X obj 687 1154 bng 15 250 50 0 eG_bang empty empty 17 7 0 10 -262144
-1 -1;
#X obj 601 1286 +~;
#X obj 680 358 ||;
#X obj 760 411 &&;
#X msg 760 1126 start;
#X floatatom 760 1045 5 0 0 0 - - -;
#X obj 760 1071 edge;
#X obj 760 1235 readsf~;
#X msg 787 1150 stop;
#X obj 760 1099 delay;
#X obj 767 1153 bng 15 250 50 0 eH_bang empty empty 17 7 0 10 -262144
-1 -1;
#X obj 680 1286 +~;
#X obj 760 387 ||;
#X obj 3249 77 r h3;
#X obj 2207 97 <= 255;
#X obj 2207 146 +;
#X obj 2207 174 == 1;
#X obj 2251 174 +;
#X obj 2251 207 == 1;
#X obj 2297 201 +;
#X obj 2297 234 == 1;
#X obj 2341 227 +;
#X obj 2341 260 == 1;
#X floatatom 2207 200 5 0 0 0 - - -;
#X floatatom 2251 232 5 0 0 0 - - -;
#X floatatom 2297 259 5 0 0 0 - - -;
#X floatatom 2341 286 5 0 0 0 - - -;
#X floatatom 2388 315 5 0 0 0 - - -;
#X text 2345 76 Note Select (Flex Index);
#X obj 2431 278 +;
#X obj 2431 311 == 1;
#X obj 2475 304 +;
#X obj 2475 337 == 1;
#X floatatom 2431 336 5 0 0 0 - - -;
#X floatatom 2475 363 5 0 0 0 - - -;
#X floatatom 2522 392 5 0 0 0 - - -;
#X obj 2388 251 +;
#X obj 2388 288 == 1;
#X text 1255 3 Electronic Effects;
#X obj 853 443 &&;
#X obj 936 479 &&;
#X obj 1017 506 &&;
#X obj 1104 533 &&;
#X obj 1191 562 &&;
#X obj 936 453 ||;
#X obj 1017 482 ||;
#X obj 1104 509 ||;
#X obj 1191 538 ||;
#X obj 853 417 ||;
#X obj 1267 592 &&;
#X obj 1267 568 ||;
#X obj 1350 619 &&;
#X obj 1350 595 ||;
#X obj 1426 651 &&;
#X obj 1426 627 ||;
#X obj 1511 676 &&;
#X obj 1595 708 &&;
#X obj 1677 735 &&;
#X obj 1764 762 &&;
#X obj 1849 791 &&;
#X obj 1595 682 ||;
#X obj 1677 711 ||;
#X obj 1764 738 ||;
#X obj 1849 767 ||;
#X obj 1511 654 ||;
#X obj 1927 818 &&;
#X obj 1927 794 ||;
#X obj 2008 847 &&;
#X obj 2008 823 ||;
#X obj 2090 874 &&;
#X obj 2090 850 ||;
#X obj 2572 370 +;
#X obj 2572 398 == 1;
#X obj 2616 402 +;
#X obj 2616 435 == 1;
#X obj 2662 429 +;
#X obj 2662 462 == 1;
#X obj 2706 455 +;
#X obj 2706 488 == 1;
#X floatatom 2572 424 5 0 0 0 - - -;
#X floatatom 2616 460 5 0 0 0 - - -;
#X floatatom 2662 487 5 0 0 0 - - -;
#X floatatom 2706 514 5 0 0 0 - - -;
#X floatatom 2753 543 5 0 0 0 - - -;
#X obj 2796 515 +;
#X obj 2796 548 == 1;
#X obj 2840 541 +;
#X obj 2840 574 == 1;
#X floatatom 2796 573 5 0 0 0 - - -;
#X floatatom 2840 600 5 0 0 0 - - -;
#X floatatom 2887 632 5 0 0 0 - - -;
#X obj 2753 479 +;
#X obj 2753 516 == 1;
#X obj 2522 335 +;
#X obj 2522 368 == 1;
#X obj 2934 603 +;
#X obj 2934 631 == 1;
#X obj 2978 631 +;
#X obj 2978 664 == 1;
#X obj 3024 658 +;
#X obj 3024 691 == 1;
#X obj 3068 684 +;
#X obj 3068 717 == 1;
#X floatatom 2934 657 5 0 0 0 - - -;
#X floatatom 2978 689 5 0 0 0 - - -;
#X floatatom 3024 716 5 0 0 0 - - -;
#X floatatom 3068 743 5 0 0 0 - - -;
#X floatatom 3115 772 5 0 0 0 - - -;
#X obj 3158 741 +;
#X obj 3158 774 == 1;
#X obj 3202 769 +;
#X obj 3202 802 == 1;
#X floatatom 3158 799 5 0 0 0 - - -;
#X floatatom 3202 828 5 0 0 0 - - -;
#X floatatom 3249 855 5 0 0 0 - - -;
#X obj 3115 708 +;
#X obj 3115 745 == 1;
#X obj 2887 574 +;
#X obj 2887 607 == 1;
#X obj 2251 126 <= 245;
#X obj 2297 154 <= 235;
#X obj 2341 181 <= 225;
#X obj 2388 207 <= 215;
#X obj 2431 231 <= 205;
#X obj 2475 258 <= 195;
#X obj 2522 284 <= 185;
#X obj 2572 315 <= 175;
#X obj 2616 350 <= 165;
#X obj 2662 382 <= 155;
#X obj 2706 409 <= 145;
#X obj 2753 435 <= 135;
#X obj 2796 459 <= 125;
#X obj 2840 495 <= 115;
#X obj 2887 521 <= 105;
#X obj 2934 554 <= 95;
#X obj 2978 583 <= 85;
#X obj 3024 611 <= 75;
#X obj 3068 638 <= 65;
#X obj 3115 664 <= 55;
#X obj 3158 688 <= 45;
#X obj 3202 721 <= 35;
#X obj 3249 749 <= 25;
#X obj 59 1289 r elec_vol;
#X obj 165 1370 s~ electronic;
#X obj 208 1180 s eA;
#X obj 202 1203 r sf_eA;
#X obj 229 1260 s eA;
#X obj 290 1183 s eB;
#X obj 284 1205 r sf_eB;
#X obj 312 1259 s eB;
#X obj 372 1180 s eC;
#X obj 370 1204 r sf_eC;
#X obj 394 1259 s eC;
#X obj 460 1184 s eD;
#X obj 454 1207 r sf_eD;
#X obj 481 1260 s eD;
#X obj 547 1183 s eE;
#X obj 540 1206 r sf_eE;
#X obj 566 1261 s eE;
#X obj 627 1183 s eF;
#X obj 620 1206 r sf_eF;
#X obj 646 1261 s eF;
#X obj 707 1184 s eG;
#X obj 700 1207 r sf_eG;
#X obj 726 1262 s eG;
#X obj 787 1183 s eH;
#X obj 780 1206 r sf_eH;
#X obj 806 1261 s eH;
#X msg 1104 1133 start;
#X floatatom 1104 1050 5 0 0 0 - - -;
#X obj 1104 1076 edge;
#X obj 1104 1241 readsf~;
#X msg 1017 1133 start;
#X floatatom 1017 1050 5 0 0 0 - - -;
#X obj 1017 1076 edge;
#X obj 1017 1240 readsf~;
#X msg 936 1131 start;
#X floatatom 936 1049 5 0 0 0 - - -;
#X obj 936 1075 edge;
#X obj 936 1239 readsf~;
#X msg 853 1130 start;
#X floatatom 853 1049 5 0 0 0 - - -;
#X obj 853 1075 edge;
#X obj 853 1237 readsf~;
#X msg 1191 1133 start;
#X floatatom 1191 1052 5 0 0 0 - - -;
#X obj 1191 1078 edge;
#X obj 1191 1242 readsf~;
#X msg 878 1153 stop;
#X msg 960 1154 stop;
#X msg 1218 1157 stop;
#X msg 1129 1157 stop;
#X msg 1041 1155 stop;
#X obj 853 1104 delay;
#X obj 936 1104 delay;
#X obj 1017 1104 delay;
#X obj 1191 1106 delay;
#X obj 1104 1104 delay;
#X obj 854 1289 +~;
#X obj 1018 1292 +~;
#X obj 936 1293 +~;
#X obj 860 1154 bng 15 250 50 0 eI_bang empty empty 17 7 0 10 -262144
-1 -1;
#X obj 1198 1160 bng 15 250 50 0 eM_bang empty empty 17 7 0 10 -262144
-1 -1;
#X obj 1111 1160 bng 15 250 50 0 eL_bang empty empty 17 7 0 10 -262144
-1 -1;
#X obj 1023 1158 bng 15 250 50 0 eK_bang empty empty 17 7 0 10 -262144
-1 -1;
#X obj 942 1157 bng 15 250 50 0 eJ_bang empty empty 17 7 0 10 -262144
-1 -1;
#X obj 1104 1293 +~;
#X msg 1267 1134 start;
#X floatatom 1267 1053 5 0 0 0 - - -;
#X obj 1267 1079 edge;
#X obj 1267 1243 readsf~;
#X msg 1294 1158 stop;
#X obj 1267 1107 delay;
#X obj 1274 1161 bng 15 250 50 0 eN_bang empty empty 17 7 0 10 -262144
-1 -1;
#X obj 1191 1294 +~;
#X msg 1350 1135 start;
#X floatatom 1350 1054 5 0 0 0 - - -;
#X obj 1350 1080 edge;
#X obj 1350 1244 readsf~;
#X msg 1377 1159 stop;
#X obj 1350 1108 delay;
#X obj 1357 1162 bng 15 250 50 0 eO_bang empty empty 17 7 0 10 -262144
-1 -1;
#X obj 1268 1294 +~;
#X msg 1426 1134 start;
#X floatatom 1426 1053 5 0 0 0 - - -;
#X obj 1426 1079 edge;
#X obj 1426 1243 readsf~;
#X msg 1453 1158 stop;
#X obj 1426 1107 delay;
#X obj 1433 1161 bng 15 250 50 0 eP_bang empty empty 17 7 0 10 -262144
-1 -1;
#X obj 1350 1294 +~;
#X msg 1764 1135 start;
#X floatatom 1764 1052 5 0 0 0 - - -;
#X obj 1764 1078 edge;
#X obj 1764 1243 readsf~;
#X msg 1677 1135 start;
#X floatatom 1677 1052 5 0 0 0 - - -;
#X obj 1677 1078 edge;
#X obj 1677 1242 readsf~;
#X msg 1595 1133 start;
#X floatatom 1595 1051 5 0 0 0 - - -;
#X obj 1595 1077 edge;
#X obj 1595 1241 readsf~;
#X msg 1511 1132 start;
#X floatatom 1511 1051 5 0 0 0 - - -;
#X obj 1511 1077 edge;
#X obj 1511 1239 readsf~;
#X msg 1849 1135 start;
#X floatatom 1849 1054 5 0 0 0 - - -;
#X obj 1849 1080 edge;
#X obj 1849 1244 readsf~;
#X msg 1536 1155 stop;
#X msg 1619 1156 stop;
#X msg 1876 1159 stop;
#X msg 1789 1159 stop;
#X msg 1701 1157 stop;
#X obj 1511 1106 delay;
#X obj 1595 1106 delay;
#X obj 1677 1106 delay;
#X obj 1849 1108 delay;
#X obj 1764 1106 delay;
#X obj 1512 1291 +~;
#X obj 1678 1294 +~;
#X obj 1595 1295 +~;
#X obj 1518 1156 bng 15 250 50 0 eQ_bang empty empty 17 7 0 10 -262144
-1 -1;
#X obj 1856 1162 bng 15 250 50 0 eU_bang empty empty 17 7 0 10 -262144
-1 -1;
#X obj 1771 1162 bng 15 250 50 0 eT_bang empty empty 17 7 0 10 -262144
-1 -1;
#X obj 1683 1160 bng 15 250 50 0 eS_bang empty empty 17 7 0 10 -262144
-1 -1;
#X obj 1601 1159 bng 15 250 50 0 eR_bang empty empty 17 7 0 10 -262144
-1 -1;
#X obj 1764 1295 +~;
#X msg 1927 1136 start;
#X floatatom 1927 1055 5 0 0 0 - - -;
#X obj 1927 1081 edge;
#X obj 1927 1245 readsf~;
#X msg 1954 1160 stop;
#X obj 1927 1109 delay;
#X obj 1934 1163 bng 15 250 50 0 eV_bang empty empty 17 7 0 10 -262144
-1 -1;
#X obj 1849 1296 +~;
#X msg 2008 1138 start;
#X floatatom 2008 1057 5 0 0 0 - - -;
#X obj 2008 1083 edge;
#X obj 2008 1247 readsf~;
#X msg 2035 1162 stop;
#X obj 2008 1111 delay;
#X obj 2015 1165 bng 15 250 50 0 eW_bang empty empty 17 7 0 10 -262144
-1 -1;
#X obj 1928 1296 +~;
#X msg 2090 1137 start;
#X floatatom 2090 1056 5 0 0 0 - - -;
#X obj 2090 1082 edge;
#X obj 2090 1246 readsf~;
#X msg 2117 1161 stop;
#X obj 2090 1110 delay;
#X obj 2097 1164 bng 15 250 50 0 eX_bang empty empty 17 7 0 10 -262144
-1 -1;
#X obj 2008 1297 +~;
#X obj 759 1288 +~;
#X obj 1425 1295 +~;
#X obj 899 1267 s eI;
#X obj 872 1210 r sf_eI;
#X obj 878 1187 s eI;
#X obj 960 1189 s eJ;
#X obj 954 1212 r sf_eJ;
#X obj 982 1266 s eJ;
#X obj 1041 1187 s eK;
#X obj 1039 1211 r sf_eK;
#X obj 1063 1266 s eK;
#X obj 1129 1191 s eL;
#X obj 1123 1214 r sf_eL;
#X obj 1150 1267 s eL;
#X obj 1218 1190 s eM;
#X obj 1211 1213 r sf_eM;
#X obj 1237 1268 s eM;
#X obj 1294 1191 s eN;
#X obj 1287 1214 r sf_eN;
#X obj 1313 1269 s eN;
#X obj 1377 1192 s eO;
#X obj 1370 1215 r sf_eO;
#X obj 1396 1270 s eO;
#X obj 1452 1191 s eP;
#X obj 1446 1214 r sf_eP;
#X obj 1472 1269 s eP;
#X obj 1536 1189 s eQ;
#X obj 1530 1212 r sf_eQ;
#X obj 1557 1269 s eQ;
#X obj 1619 1192 s eR;
#X obj 1613 1214 r sf_eR;
#X obj 1641 1268 s eR;
#X obj 1701 1189 s eS;
#X obj 1699 1213 r sf_eS;
#X obj 1723 1268 s eS;
#X obj 1789 1193 s eT;
#X obj 1783 1216 r sf_eT;
#X obj 1810 1269 s eT;
#X obj 1876 1192 s eU;
#X obj 1869 1215 r sf_eU;
#X obj 1895 1270 s eU;
#X obj 1954 1193 s eV;
#X obj 1947 1216 r sf_eV;
#X obj 1973 1271 s eV;
#X obj 2035 1195 s eW;
#X obj 2028 1218 r sf_eW;
#X obj 2054 1273 s eW;
#X obj 2117 1194 s eX;
#X obj 2110 1217 r sf_eX;
#X obj 2136 1272 s eX;
#X obj 1261 56 r elec5;
#X obj 1371 55 r elec4;
#X obj 1326 55 > 50;
#X connect 0 0 421 0;
#X connect 1 0 53 1;
#X connect 1 0 54 1;
#X connect 1 0 55 1;
#X connect 1 0 56 1;
#X connect 1 0 57 1;
#X connect 1 0 67 1;
#X connect 1 0 77 1;
#X connect 1 0 87 1;
#X connect 1 0 123 1;
#X connect 1 0 119 1;
#X connect 1 0 120 1;
#X connect 1 0 121 1;
#X connect 1 0 122 1;
#X connect 1 0 125 1;
#X connect 1 0 127 1;
#X connect 1 0 129 1;
#X connect 1 0 139 1;
#X connect 1 0 135 1;
#X connect 1 0 136 1;
#X connect 1 0 137 1;
#X connect 1 0 138 1;
#X connect 1 0 141 1;
#X connect 1 0 143 1;
#X connect 1 0 145 1;
#X connect 2 0 20 0;
#X connect 3 0 16 0;
#X connect 4 0 12 0;
#X connect 5 0 8 0;
#X connect 6 0 24 0;
#X connect 7 0 10 0;
#X connect 7 0 42 0;
#X connect 8 0 9 0;
#X connect 9 0 36 0;
#X connect 9 0 30 0;
#X connect 10 0 45 0;
#X connect 10 1 230 0;
#X connect 11 0 14 0;
#X connect 11 0 43 0;
#X connect 12 0 13 0;
#X connect 13 0 34 0;
#X connect 13 0 31 0;
#X connect 14 0 38 0;
#X connect 14 1 227 0;
#X connect 15 0 18 0;
#X connect 15 0 44 0;
#X connect 16 0 17 0;
#X connect 17 0 33 0;
#X connect 17 0 28 0;
#X connect 18 0 39 0;
#X connect 18 1 224 0;
#X connect 19 0 40 0;
#X connect 19 0 22 0;
#X connect 20 0 21 0;
#X connect 21 0 27 0;
#X connect 21 0 32 0;
#X connect 22 0 37 0;
#X connect 22 1 221 0;
#X connect 23 0 26 0;
#X connect 23 0 41 0;
#X connect 24 0 25 0;
#X connect 25 0 35 0;
#X connect 25 0 29 0;
#X connect 26 0 66 0;
#X connect 26 1 233 0;
#X connect 27 0 22 0;
#X connect 27 0 219 0;
#X connect 28 0 18 0;
#X connect 28 0 222 0;
#X connect 29 0 26 0;
#X connect 29 0 231 0;
#X connect 30 0 10 0;
#X connect 30 0 228 0;
#X connect 31 0 14 0;
#X connect 31 0 225 0;
#X connect 32 0 19 0;
#X connect 33 0 15 0;
#X connect 34 0 11 0;
#X connect 35 0 23 0;
#X connect 36 0 7 0;
#X connect 37 0 46 1;
#X connect 38 0 39 1;
#X connect 39 0 37 1;
#X connect 45 0 38 1;
#X connect 46 0 218 0;
#X connect 47 0 46 0;
#X connect 48 0 1 0;
#X connect 49 0 51 0;
#X connect 50 0 52 0;
#X connect 51 0 50 0;
#X connect 52 0 53 0;
#X connect 52 0 54 0;
#X connect 52 0 55 0;
#X connect 52 0 56 0;
#X connect 52 0 57 0;
#X connect 52 0 67 0;
#X connect 52 0 77 0;
#X connect 52 0 87 0;
#X connect 52 0 123 0;
#X connect 52 0 119 0;
#X connect 52 0 120 0;
#X connect 52 0 121 0;
#X connect 52 0 122 0;
#X connect 52 0 125 0;
#X connect 52 0 127 0;
#X connect 52 0 129 0;
#X connect 52 0 139 0;
#X connect 52 0 135 0;
#X connect 52 0 136 0;
#X connect 52 0 137 0;
#X connect 52 0 138 0;
#X connect 52 0 141 0;
#X connect 52 0 143 0;
#X connect 52 0 145 0;
#X connect 53 0 3 0;
#X connect 54 0 4 0;
#X connect 55 0 5 0;
#X connect 56 0 6 0;
#X connect 57 0 2 0;
#X connect 58 0 60 0;
#X connect 59 0 62 0;
#X connect 59 0 65 0;
#X connect 60 0 61 0;
#X connect 61 0 64 0;
#X connect 61 0 63 0;
#X connect 62 0 76 0;
#X connect 62 1 236 0;
#X connect 63 0 62 0;
#X connect 63 0 234 0;
#X connect 64 0 59 0;
#X connect 66 0 45 1;
#X connect 67 0 58 0;
#X connect 68 0 70 0;
#X connect 69 0 72 0;
#X connect 69 0 75 0;
#X connect 70 0 71 0;
#X connect 71 0 74 0;
#X connect 71 0 73 0;
#X connect 72 0 86 0;
#X connect 72 1 239 0;
#X connect 73 0 72 0;
#X connect 73 0 237 0;
#X connect 74 0 69 0;
#X connect 76 0 66 1;
#X connect 77 0 68 0;
#X connect 78 0 80 0;
#X connect 79 0 82 0;
#X connect 79 0 85 0;
#X connect 80 0 81 0;
#X connect 81 0 84 0;
#X connect 81 0 83 0;
#X connect 82 0 369 0;
#X connect 82 1 242 0;
#X connect 83 0 82 0;
#X connect 83 0 240 0;
#X connect 84 0 79 0;
#X connect 86 0 76 1;
#X connect 87 0 78 0;
#X connect 88 0 89 0;
#X connect 88 0 194 0;
#X connect 88 0 195 0;
#X connect 88 0 196 0;
#X connect 88 0 197 0;
#X connect 88 0 198 0;
#X connect 88 0 199 0;
#X connect 88 0 200 0;
#X connect 88 0 201 0;
#X connect 88 0 216 0;
#X connect 88 0 202 0;
#X connect 88 0 203 0;
#X connect 88 0 204 0;
#X connect 88 0 205 0;
#X connect 88 0 206 0;
#X connect 88 0 207 0;
#X connect 88 0 208 0;
#X connect 88 0 209 0;
#X connect 88 0 210 0;
#X connect 88 0 211 0;
#X connect 88 0 212 0;
#X connect 88 0 213 0;
#X connect 88 0 214 0;
#X connect 88 0 215 0;
#X connect 89 0 90 0;
#X connect 90 0 91 0;
#X connect 91 0 98 0;
#X connect 92 0 93 0;
#X connect 93 0 99 0;
#X connect 94 0 95 0;
#X connect 95 0 100 0;
#X connect 96 0 97 0;
#X connect 97 0 101 0;
#X connect 98 0 2 1;
#X connect 99 0 3 1;
#X connect 100 0 4 1;
#X connect 101 0 5 1;
#X connect 102 0 6 1;
#X connect 104 0 105 0;
#X connect 105 0 108 0;
#X connect 106 0 107 0;
#X connect 107 0 109 0;
#X connect 108 0 58 1;
#X connect 109 0 68 1;
#X connect 110 0 78 1;
#X connect 111 0 112 0;
#X connect 112 0 102 0;
#X connect 114 0 256 0;
#X connect 115 0 252 0;
#X connect 116 0 248 0;
#X connect 117 0 244 0;
#X connect 118 0 260 0;
#X connect 119 0 115 0;
#X connect 120 0 116 0;
#X connect 121 0 117 0;
#X connect 122 0 118 0;
#X connect 123 0 114 0;
#X connect 124 0 283 0;
#X connect 125 0 124 0;
#X connect 126 0 291 0;
#X connect 127 0 126 0;
#X connect 128 0 299 0;
#X connect 129 0 128 0;
#X connect 130 0 319 0;
#X connect 131 0 315 0;
#X connect 132 0 311 0;
#X connect 133 0 307 0;
#X connect 134 0 323 0;
#X connect 135 0 131 0;
#X connect 136 0 132 0;
#X connect 137 0 133 0;
#X connect 138 0 134 0;
#X connect 139 0 130 0;
#X connect 140 0 346 0;
#X connect 141 0 140 0;
#X connect 142 0 354 0;
#X connect 143 0 142 0;
#X connect 144 0 362 0;
#X connect 145 0 144 0;
#X connect 146 0 147 0;
#X connect 147 0 154 0;
#X connect 148 0 149 0;
#X connect 149 0 155 0;
#X connect 150 0 151 0;
#X connect 151 0 156 0;
#X connect 152 0 153 0;
#X connect 153 0 157 0;
#X connect 154 0 114 1;
#X connect 155 0 115 1;
#X connect 156 0 116 1;
#X connect 157 0 117 1;
#X connect 158 0 118 1;
#X connect 159 0 160 0;
#X connect 160 0 163 0;
#X connect 161 0 162 0;
#X connect 162 0 164 0;
#X connect 163 0 124 1;
#X connect 164 0 126 1;
#X connect 165 0 128 1;
#X connect 166 0 167 0;
#X connect 167 0 158 0;
#X connect 168 0 169 0;
#X connect 169 0 110 0;
#X connect 170 0 171 0;
#X connect 171 0 178 0;
#X connect 172 0 173 0;
#X connect 173 0 179 0;
#X connect 174 0 175 0;
#X connect 175 0 180 0;
#X connect 176 0 177 0;
#X connect 177 0 181 0;
#X connect 178 0 130 1;
#X connect 179 0 131 1;
#X connect 180 0 132 1;
#X connect 181 0 133 1;
#X connect 182 0 134 1;
#X connect 183 0 184 0;
#X connect 184 0 187 0;
#X connect 185 0 186 0;
#X connect 186 0 188 0;
#X connect 187 0 140 1;
#X connect 188 0 142 1;
#X connect 189 0 144 1;
#X connect 190 0 191 0;
#X connect 191 0 182 0;
#X connect 192 0 193 0;
#X connect 193 0 165 0;
#X connect 194 0 90 1;
#X connect 194 0 92 0;
#X connect 195 0 92 1;
#X connect 195 0 94 0;
#X connect 196 0 94 1;
#X connect 196 0 96 0;
#X connect 197 0 96 1;
#X connect 197 0 111 0;
#X connect 198 0 104 0;
#X connect 198 0 111 1;
#X connect 199 0 104 1;
#X connect 199 0 106 0;
#X connect 200 0 106 1;
#X connect 200 0 168 0;
#X connect 201 0 146 0;
#X connect 201 0 168 1;
#X connect 202 0 146 1;
#X connect 202 0 148 0;
#X connect 203 0 148 1;
#X connect 203 0 150 0;
#X connect 204 0 150 1;
#X connect 204 0 152 0;
#X connect 205 0 152 1;
#X connect 205 0 166 0;
#X connect 206 0 159 0;
#X connect 206 0 166 1;
#X connect 207 0 159 1;
#X connect 207 0 161 0;
#X connect 208 0 161 1;
#X connect 208 0 192 0;
#X connect 209 0 170 0;
#X connect 209 0 192 1;
#X connect 210 0 170 1;
#X connect 210 0 172 0;
#X connect 211 0 172 1;
#X connect 211 0 174 0;
#X connect 212 0 174 1;
#X connect 212 0 176 0;
#X connect 213 0 176 1;
#X connect 213 0 190 0;
#X connect 214 0 183 0;
#X connect 214 0 190 1;
#X connect 215 0 183 1;
#X connect 215 0 185 0;
#X connect 216 0 185 1;
#X connect 216 0 189 0;
#X connect 217 0 47 0;
#X connect 220 0 22 0;
#X connect 223 0 18 0;
#X connect 226 0 14 0;
#X connect 229 0 10 0;
#X connect 232 0 26 0;
#X connect 235 0 62 0;
#X connect 238 0 72 0;
#X connect 241 0 82 0;
#X connect 243 0 246 0;
#X connect 243 0 278 0;
#X connect 244 0 245 0;
#X connect 245 0 272 0;
#X connect 245 0 266 0;
#X connect 246 0 281 0;
#X connect 246 1 382 0;
#X connect 247 0 250 0;
#X connect 247 0 279 0;
#X connect 248 0 249 0;
#X connect 249 0 270 0;
#X connect 249 0 267 0;
#X connect 250 0 274 0;
#X connect 250 1 379 0;
#X connect 251 0 254 0;
#X connect 251 0 280 0;
#X connect 252 0 253 0;
#X connect 253 0 269 0;
#X connect 253 0 264 0;
#X connect 254 0 275 0;
#X connect 254 1 376 0;
#X connect 255 0 276 0;
#X connect 255 0 258 0;
#X connect 256 0 257 0;
#X connect 257 0 263 0;
#X connect 257 0 268 0;
#X connect 258 0 273 0;
#X connect 258 1 371 0;
#X connect 259 0 262 0;
#X connect 259 0 277 0;
#X connect 260 0 261 0;
#X connect 261 0 271 0;
#X connect 261 0 265 0;
#X connect 262 0 289 0;
#X connect 262 1 385 0;
#X connect 263 0 258 0;
#X connect 263 0 373 0;
#X connect 264 0 254 0;
#X connect 264 0 374 0;
#X connect 265 0 262 0;
#X connect 265 0 383 0;
#X connect 266 0 246 0;
#X connect 266 0 380 0;
#X connect 267 0 250 0;
#X connect 267 0 377 0;
#X connect 268 0 255 0;
#X connect 269 0 251 0;
#X connect 270 0 247 0;
#X connect 271 0 259 0;
#X connect 272 0 243 0;
#X connect 273 0 369 1;
#X connect 274 0 275 1;
#X connect 275 0 273 1;
#X connect 281 0 274 1;
#X connect 282 0 285 0;
#X connect 282 0 288 0;
#X connect 283 0 284 0;
#X connect 284 0 287 0;
#X connect 284 0 286 0;
#X connect 285 0 297 0;
#X connect 285 1 388 0;
#X connect 286 0 285 0;
#X connect 286 0 386 0;
#X connect 287 0 282 0;
#X connect 289 0 281 1;
#X connect 290 0 293 0;
#X connect 290 0 296 0;
#X connect 291 0 292 0;
#X connect 292 0 295 0;
#X connect 292 0 294 0;
#X connect 293 0 305 0;
#X connect 293 1 391 0;
#X connect 294 0 293 0;
#X connect 294 0 389 0;
#X connect 295 0 290 0;
#X connect 297 0 289 1;
#X connect 298 0 301 0;
#X connect 298 0 304 0;
#X connect 299 0 300 0;
#X connect 300 0 303 0;
#X connect 300 0 302 0;
#X connect 301 0 370 0;
#X connect 301 1 394 0;
#X connect 302 0 301 0;
#X connect 302 0 392 0;
#X connect 303 0 298 0;
#X connect 305 0 297 1;
#X connect 306 0 309 0;
#X connect 306 0 341 0;
#X connect 307 0 308 0;
#X connect 308 0 335 0;
#X connect 308 0 329 0;
#X connect 309 0 344 0;
#X connect 309 1 406 0;
#X connect 310 0 313 0;
#X connect 310 0 342 0;
#X connect 311 0 312 0;
#X connect 312 0 333 0;
#X connect 312 0 330 0;
#X connect 313 0 337 0;
#X connect 313 1 403 0;
#X connect 314 0 317 0;
#X connect 314 0 343 0;
#X connect 315 0 316 0;
#X connect 316 0 332 0;
#X connect 316 0 327 0;
#X connect 317 0 338 0;
#X connect 317 1 400 0;
#X connect 318 0 339 0;
#X connect 318 0 321 0;
#X connect 319 0 320 0;
#X connect 320 0 326 0;
#X connect 320 0 331 0;
#X connect 321 0 336 0;
#X connect 321 1 397 0;
#X connect 322 0 325 0;
#X connect 322 0 340 0;
#X connect 323 0 324 0;
#X connect 324 0 334 0;
#X connect 324 0 328 0;
#X connect 325 0 352 0;
#X connect 325 1 409 0;
#X connect 326 0 321 0;
#X connect 326 0 395 0;
#X connect 327 0 317 0;
#X connect 327 0 398 0;
#X connect 328 0 325 0;
#X connect 328 0 407 0;
#X connect 329 0 309 0;
#X connect 329 0 404 0;
#X connect 330 0 313 0;
#X connect 330 0 401 0;
#X connect 331 0 318 0;
#X connect 332 0 314 0;
#X connect 333 0 310 0;
#X connect 334 0 322 0;
#X connect 335 0 306 0;
#X connect 336 0 370 1;
#X connect 337 0 338 1;
#X connect 338 0 336 1;
#X connect 344 0 337 1;
#X connect 345 0 348 0;
#X connect 345 0 351 0;
#X connect 346 0 347 0;
#X connect 347 0 350 0;
#X connect 347 0 349 0;
#X connect 348 0 360 0;
#X connect 348 1 412 0;
#X connect 349 0 348 0;
#X connect 349 0 410 0;
#X connect 350 0 345 0;
#X connect 352 0 344 1;
#X connect 353 0 356 0;
#X connect 353 0 359 0;
#X connect 354 0 355 0;
#X connect 355 0 358 0;
#X connect 355 0 357 0;
#X connect 356 0 368 0;
#X connect 356 1 415 0;
#X connect 357 0 356 0;
#X connect 357 0 413 0;
#X connect 358 0 353 0;
#X connect 360 0 352 1;
#X connect 361 0 364 0;
#X connect 361 0 367 0;
#X connect 362 0 363 0;
#X connect 363 0 366 0;
#X connect 363 0 365 0;
#X connect 364 0 368 1;
#X connect 364 1 418 0;
#X connect 365 0 364 0;
#X connect 365 0 416 0;
#X connect 366 0 361 0;
#X connect 368 0 360 1;
#X connect 369 0 86 1;
#X connect 370 0 305 1;
#X connect 372 0 258 0;
#X connect 375 0 254 0;
#X connect 378 0 250 0;
#X connect 381 0 246 0;
#X connect 384 0 262 0;
#X connect 387 0 285 0;
#X connect 390 0 293 0;
#X connect 393 0 301 0;
#X connect 396 0 321 0;
#X connect 399 0 317 0;
#X connect 402 0 313 0;
#X connect 405 0 309 0;
#X connect 408 0 325 0;
#X connect 411 0 348 0;
#X connect 414 0 356 0;
#X connect 417 0 364 0;
#X connect 419 0 50 1;
#X connect 420 0 48 1;
#X connect 421 0 48 0;
#X restore 1123 144 pd electronic;
#X obj 1347 532 r~ electronic;
#X text 1302 41 notes and beats;
#X text 1286 499 Audio Output;
#X obj 971 793 s sf_eV;
#X obj 971 819 r eW;
#X obj 971 868 s sf_eW;
#X obj 971 892 r eX;
#X obj 971 942 s sf_eX;
#X obj 1221 148 bng 15 250 50 0 empty eA_bang empty 17 7 0 10 -262144
-1 -1;
#X obj 1236 148 bng 15 250 50 0 empty eB_bang empty 17 7 0 10 -262144
-1 -1;
#X obj 1251 148 bng 15 250 50 0 empty eC_bang empty 17 7 0 10 -262144
-1 -1;
#X obj 1266 148 bng 15 250 50 0 empty eD_bang empty 17 7 0 10 -262144
-1 -1;
#X obj 1281 148 bng 15 250 50 0 empty eE_bang empty 17 7 0 10 -262144
-1 -1;
#X obj 1296 148 bng 15 250 50 0 empty eF_bang empty 17 7 0 10 -262144
-1 -1;
#X obj 1310 148 bng 15 250 50 0 empty eG_bang empty 17 7 0 10 -262144
-1 -1;
#X obj 1325 148 bng 15 250 50 0 empty eH_bang empty 17 7 0 10 -262144
-1 -1;
#X obj 1340 148 bng 15 250 50 0 empty eI_bang empty 17 7 0 10 -262144
-1 -1;
#X obj 1355 148 bng 15 250 50 0 empty eJ_bang empty 17 7 0 10 -262144
-1 -1;
#X obj 1370 148 bng 15 250 50 0 empty eK_bang empty 17 7 0 10 -262144
-1 -1;
#X obj 1385 148 bng 15 250 50 0 empty eL_bang empty 17 7 0 10 -262144
-1 -1;
#X obj 1400 148 bng 15 250 50 0 empty eM_bang empty 17 7 0 10 -262144
-1 -1;
#X obj 1415 148 bng 15 250 50 0 empty eN_bang empty 17 7 0 10 -262144
-1 -1;
#X obj 1430 148 bng 15 250 50 0 empty eO_bang empty 17 7 0 10 -262144
-1 -1;
#X obj 1445 148 bng 15 250 50 0 empty eP_bang empty 17 7 0 10 -262144
-1 -1;
#X obj 1460 148 bng 15 250 50 0 empty eQ_bang empty 17 7 0 10 -262144
-1 -1;
#X obj 1475 148 bng 15 250 50 0 empty eR_bang empty 17 7 0 10 -262144
-1 -1;
#X obj 1490 148 bng 15 250 50 0 empty eS_bang empty 17 7 0 10 -262144
-1 -1;
#X obj 1505 148 bng 15 250 50 0 empty eT_bang empty 17 7 0 10 -262144
-1 -1;
#X obj 1520 148 bng 15 250 50 0 empty eU_bang empty 17 7 0 10 -262144
-1 -1;
#X obj 1535 148 bng 15 250 50 0 empty eV_bang empty 17 7 0 10 -262144
-1 -1;
#X obj 1550 148 bng 15 250 50 0 empty eW_bang empty 17 7 0 10 -262144
-1 -1;
#X obj 1565 148 bng 15 250 50 0 empty eX_bang empty 17 7 0 10 -262144
-1 -1;
#X obj 1222 121 bng 15 250 50 0 empty bA_bang empty 17 7 0 10 -262144
-1 -1;
#X obj 1237 121 bng 15 250 50 0 empty bB_bang empty 17 7 0 10 -262144
-1 -1;
#X obj 1252 121 bng 15 250 50 0 empty bC_bang empty 17 7 0 10 -262144
-1 -1;
#X obj 1267 121 bng 15 250 50 0 empty bD_bang empty 17 7 0 10 -262144
-1 -1;
#X obj 1282 121 bng 15 250 50 0 empty bE_bang empty 17 7 0 10 -262144
-1 -1;
#X obj 1297 121 bng 15 250 50 0 empty bF_bang empty 17 7 0 10 -262144
-1 -1;
#X obj 1311 121 bng 15 250 50 0 empty bG_bang empty 17 7 0 10 -262144
-1 -1;
#X obj 1326 121 bng 15 250 50 0 empty bH_bang empty 17 7 0 10 -262144
-1 -1;
#X obj 1223 95 bng 15 250 50 0 empty pA_bang empty 17 7 0 10 -262144
-1 -1;
#X obj 1238 95 bng 15 250 50 0 empty pC_bang empty 17 7 0 10 -262144
-1 -1;
#X obj 1253 95 bng 15 250 50 0 empty pD_bang empty 17 7 0 10 -262144
-1 -1;
#X obj 1268 95 bng 15 250 50 0 empty pE_bang empty 17 7 0 10 -262144
-1 -1;
#X obj 1283 95 bng 15 250 50 0 empty pG_bang empty 17 7 0 10 -262144
-1 -1;
#X text 1241 74 piano;
#X obj 1312 95 bng 15 250 50 0 empty gA_bang empty 17 7 0 10 -262144
-1 -1;
#X obj 1327 95 bng 15 250 50 0 empty gC_bang empty 17 7 0 10 -262144
-1 -1;
#X obj 1342 95 bng 15 250 50 0 empty gD_bang empty 17 7 0 10 -262144
-1 -1;
#X obj 1357 95 bng 15 250 50 0 empty gE_bang empty 17 7 0 10 -262144
-1 -1;
#X obj 1372 95 bng 15 250 50 0 empty gG_bang empty 17 7 0 10 -262144
-1 -1;
#X obj 1401 95 bng 15 250 50 0 empty fA_bang empty 17 7 0 10 -262144
-1 -1;
#X obj 1416 95 bng 15 250 50 0 empty fC_bang empty 17 7 0 10 -262144
-1 -1;
#X obj 1431 95 bng 15 250 50 0 empty fD_bang empty 17 7 0 10 -262144
-1 -1;
#X obj 1446 95 bng 15 250 50 0 empty fE_bang empty 17 7 0 10 -262144
-1 -1;
#X obj 1461 95 bng 15 250 50 0 empty fG_bang empty 17 7 0 10 -262144
-1 -1;
#X text 1330 74 guitar;
#X text 1419 74 flute;
#X text 1122 50 click to view sub-patches;
#X text 611 504 load electronic beats;
#X text 617 968 load drum beats;
#X obj 612 987 r dA;
#X obj 612 1037 s sf_dA;
#X msg 612 1012 open drums/A.wav;
#X obj 613 1059 r dB;
#X msg 613 1084 open drums/B.wav;
#X obj 613 1109 s sf_dB;
#X obj 614 1132 r dC;
#X msg 614 1157 open drums/C.wav;
#X obj 614 1182 s sf_dC;
#X obj 735 987 r dD;
#X msg 735 1012 open drums/D.wav;
#X obj 735 1037 s sf_dD;
#X obj 736 1059 r dE;
#X msg 736 1084 open drums/E.wav;
#X obj 736 1109 s sf_dE;
#X obj 736 1132 r dF;
#X msg 736 1157 open drums/F.wav;
#X obj 736 1182 s sf_dF;
#X obj 858 987 r dG;
#X msg 858 1012 open drums/G.wav;
#X obj 858 1037 s sf_dG;
#X obj 859 1059 r dH;
#X msg 859 1084 open drums/H.wav;
#X obj 859 1109 s sf_dH;
#X obj 859 1132 r dI;
#X msg 859 1157 open drums/I.wav;
#X obj 859 1182 s sf_dI;
#X obj 981 986 r dJ;
#X msg 981 1011 open drums/J.wav;
#X obj 981 1036 s sf_dJ;
#X obj 982 1058 r dK;
#X msg 982 1083 open drums/K.wav;
#X obj 982 1108 s sf_dK;
#N canvas 143 156 1600 1118 drums 1;
#X obj 369 -31 r h1;
#X obj 369 144 random 10;
#X floatatom 369 171 5 0 0 0 - - -;
#X msg 52 410 start;
#X floatatom 369 92 5 0 0 0 - - -;
#X obj 369 118 edge;
#X obj 52 517 readsf~;
#X msg 77 433 stop;
#X obj 59 434 bng 15 250 50 0 dA_bang empty empty 17 7 0 10 -262144
-1 -1;
#X obj 87 252 == 0;
#X obj 167 251 == 1;
#X obj 245 252 == 2;
#X obj 324 252 == 3;
#X obj 413 251 == 4;
#X obj 502 250 == 5;
#X obj 589 250 == 6;
#X obj 669 250 == 7;
#X obj 87 276 edge;
#X obj 87 302 s dA;
#X obj 167 275 edge;
#X obj 245 276 edge;
#X obj 324 276 edge;
#X obj 413 275 edge;
#X obj 502 274 edge;
#X obj 589 274 edge;
#X obj 669 274 edge;
#X obj 759 276 edge;
#X obj 844 277 edge;
#X obj 77 467 s dA;
#X obj 71 490 r sf_dA;
#X obj 98 547 s dA;
#X obj 369 2 > 145;
#X obj 52 384 delay;
#X obj 167 301 s dB;
#X obj 759 252 == 8;
#X obj 844 253 == 9;
#X obj 245 302 s dC;
#X obj 324 302 s dD;
#X obj 413 301 s dE;
#X obj 502 300 s dF;
#X obj 589 300 s dG;
#X obj 669 299 s dH;
#X obj 759 301 s dI;
#X obj 844 302 s dJ;
#X obj 943 279 edge;
#X obj 943 255 == 10;
#X obj 943 304 s dK;
#X obj 52 350 bng 15 250 50 0 empty empty empty 17 7 0 10 -262144 -1
-1;
#X obj 53 585 +~;
#X obj 34 617 *~;
#X floatatom 10 593 5 0 0 0 - - -;
#X obj -75 592 r drums_vol;
#X obj 33 651 s~ drumkit;
#X msg 134 411 start;
#X obj 134 518 readsf~;
#X msg 159 434 stop;
#X obj 141 435 bng 15 250 50 0 dB_bang empty empty 17 7 0 10 -262144
-1 -1;
#X obj 134 385 delay;
#X obj 134 351 bng 15 250 50 0 empty empty empty 17 7 0 10 -262144
-1 -1;
#X msg 216 413 start;
#X obj 216 520 readsf~;
#X msg 241 436 stop;
#X obj 223 437 bng 15 250 50 0 dC_bang empty empty 17 7 0 10 -262144
-1 -1;
#X obj 216 387 delay;
#X obj 216 353 bng 15 250 50 0 empty empty empty 17 7 0 10 -262144
-1 -1;
#X msg 298 415 start;
#X obj 298 522 readsf~;
#X msg 323 438 stop;
#X obj 305 439 bng 15 250 50 0 dD_bang empty empty 17 7 0 10 -262144
-1 -1;
#X obj 298 389 delay;
#X obj 298 355 bng 15 250 50 0 empty empty empty 17 7 0 10 -262144
-1 -1;
#X msg 383 415 start;
#X obj 383 522 readsf~;
#X msg 408 438 stop;
#X obj 390 439 bng 15 250 50 0 dE_bang empty empty 17 7 0 10 -262144
-1 -1;
#X obj 383 389 delay;
#X obj 383 355 bng 15 250 50 0 empty empty empty 17 7 0 10 -262144
-1 -1;
#X msg 468 417 start;
#X obj 468 524 readsf~;
#X msg 493 440 stop;
#X obj 475 441 bng 15 250 50 0 dF_bang empty empty 17 7 0 10 -262144
-1 -1;
#X obj 468 391 delay;
#X obj 468 357 bng 15 250 50 0 empty empty empty 17 7 0 10 -262144
-1 -1;
#X msg 553 421 start;
#X obj 553 528 readsf~;
#X msg 578 444 stop;
#X obj 560 445 bng 15 250 50 0 dG_bang empty empty 17 7 0 10 -262144
-1 -1;
#X obj 553 395 delay;
#X obj 553 361 bng 15 250 50 0 empty empty empty 17 7 0 10 -262144
-1 -1;
#X msg 638 423 start;
#X obj 638 530 readsf~;
#X msg 663 446 stop;
#X obj 645 447 bng 15 250 50 0 dH_bang empty empty 17 7 0 10 -262144
-1 -1;
#X obj 638 397 delay;
#X obj 638 363 bng 15 250 50 0 empty empty empty 17 7 0 10 -262144
-1 -1;
#X msg 723 426 start;
#X obj 723 533 readsf~;
#X msg 748 449 stop;
#X obj 730 450 bng 15 250 50 0 dI_bang empty empty 17 7 0 10 -262144
-1 -1;
#X obj 723 400 delay;
#X obj 723 366 bng 15 250 50 0 empty empty empty 17 7 0 10 -262144
-1 -1;
#X msg 809 426 start;
#X obj 809 533 readsf~;
#X msg 834 449 stop;
#X obj 816 450 bng 15 250 50 0 dJ_bang empty empty 17 7 0 10 -262144
-1 -1;
#X obj 809 400 delay;
#X obj 809 366 bng 15 250 50 0 empty empty empty 17 7 0 10 -262144
-1 -1;
#X msg 899 429 start;
#X obj 899 536 readsf~;
#X msg 924 452 stop;
#X obj 906 453 bng 15 250 50 0 dK_bang empty empty 17 7 0 10 -262144
-1 -1;
#X obj 899 403 delay;
#X obj 899 369 bng 15 250 50 0 empty empty empty 17 7 0 10 -262144
-1 -1;
#X obj 159 468 s dB;
#X obj 153 491 r sf_dB;
#X obj 180 548 s dB;
#X obj 241 470 s dC;
#X obj 235 493 r sf_dC;
#X obj 262 550 s dC;
#X obj 323 472 s dD;
#X obj 317 495 r sf_dD;
#X obj 344 552 s dD;
#X obj 408 472 s dE;
#X obj 402 495 r sf_dE;
#X obj 429 553 s dE;
#X obj 493 474 s dF;
#X obj 487 497 r sf_dF;
#X obj 514 554 s dF;
#X obj 578 478 s dG;
#X obj 572 501 r sf_dG;
#X obj 599 558 s dG;
#X obj 663 480 s dH;
#X obj 657 503 r sf_dH;
#X obj 684 560 s dH;
#X obj 748 483 s dI;
#X obj 742 506 r sf_dI;
#X obj 769 563 s dI;
#X obj 834 483 s dJ;
#X obj 828 506 r sf_dJ;
#X obj 855 563 s dJ;
#X obj 924 486 s dK;
#X obj 918 509 r sf_dK;
#X obj 945 566 s dK;
#X obj 133 583 +~;
#X obj 215 585 +~;
#X obj 298 583 +~;
#X obj 384 580 +~;
#X obj 467 582 +~;
#X obj 554 579 +~;
#X obj 639 583 +~;
#X obj 724 585 +~;
#X obj 809 588 +~;
#X obj 416 1 r drums_enable;
#X obj 369 35 +;
#X obj 369 62 == 2;
#X text 276 -52 drum kit - random select on acceleration;
#X floatatom 618 140 5 0 0 0 - - -;
#X obj 618 166 edge;
#X obj 618 83 +;
#X obj 618 110 == 2;
#X text 563 -13 clap to hit bass drum;
#X obj 618 17 r h6;
#X obj 665 49 r clap_bass_enable;
#X obj 618 50 > 50;
#X connect 0 0 31 0;
#X connect 1 0 2 0;
#X connect 2 0 9 0;
#X connect 2 0 10 0;
#X connect 2 0 11 0;
#X connect 2 0 12 0;
#X connect 2 0 13 0;
#X connect 2 0 14 0;
#X connect 2 0 15 0;
#X connect 2 0 16 0;
#X connect 2 0 34 0;
#X connect 2 0 35 0;
#X connect 2 0 45 0;
#X connect 3 0 8 0;
#X connect 3 0 6 0;
#X connect 4 0 5 0;
#X connect 5 0 1 0;
#X connect 6 0 48 0;
#X connect 6 1 30 0;
#X connect 7 0 6 0;
#X connect 7 0 28 0;
#X connect 9 0 17 0;
#X connect 10 0 19 0;
#X connect 11 0 20 0;
#X connect 12 0 21 0;
#X connect 13 0 22 0;
#X connect 14 0 23 0;
#X connect 15 0 24 0;
#X connect 16 0 25 0;
#X connect 17 0 18 0;
#X connect 17 0 47 0;
#X connect 19 0 33 0;
#X connect 19 0 58 0;
#X connect 20 0 36 0;
#X connect 20 0 64 0;
#X connect 21 0 37 0;
#X connect 21 0 70 0;
#X connect 22 0 38 0;
#X connect 22 0 76 0;
#X connect 23 0 39 0;
#X connect 23 0 82 0;
#X connect 24 0 40 0;
#X connect 24 0 88 0;
#X connect 25 0 41 0;
#X connect 25 0 94 0;
#X connect 26 0 42 0;
#X connect 26 0 100 0;
#X connect 27 0 43 0;
#X connect 27 0 106 0;
#X connect 29 0 6 0;
#X connect 31 0 153 0;
#X connect 32 0 3 0;
#X connect 34 0 26 0;
#X connect 35 0 27 0;
#X connect 44 0 46 0;
#X connect 44 0 112 0;
#X connect 45 0 44 0;
#X connect 47 0 32 0;
#X connect 47 0 7 0;
#X connect 48 0 49 1;
#X connect 49 0 52 0;
#X connect 50 0 49 0;
#X connect 51 0 50 0;
#X connect 53 0 56 0;
#X connect 53 0 54 0;
#X connect 54 0 143 0;
#X connect 54 1 115 0;
#X connect 55 0 54 0;
#X connect 55 0 113 0;
#X connect 57 0 53 0;
#X connect 58 0 57 0;
#X connect 58 0 55 0;
#X connect 59 0 62 0;
#X connect 59 0 60 0;
#X connect 60 0 144 0;
#X connect 60 1 118 0;
#X connect 61 0 60 0;
#X connect 61 0 116 0;
#X connect 63 0 59 0;
#X connect 64 0 63 0;
#X connect 64 0 61 0;
#X connect 65 0 68 0;
#X connect 65 0 66 0;
#X connect 66 0 145 0;
#X connect 66 1 121 0;
#X connect 67 0 66 0;
#X connect 67 0 119 0;
#X connect 69 0 65 0;
#X connect 70 0 69 0;
#X connect 70 0 67 0;
#X connect 71 0 74 0;
#X connect 71 0 72 0;
#X connect 72 0 146 0;
#X connect 72 1 124 0;
#X connect 73 0 72 0;
#X connect 73 0 122 0;
#X connect 75 0 71 0;
#X connect 76 0 75 0;
#X connect 76 0 73 0;
#X connect 77 0 80 0;
#X connect 77 0 78 0;
#X connect 78 0 147 0;
#X connect 78 1 127 0;
#X connect 79 0 78 0;
#X connect 79 0 125 0;
#X connect 81 0 77 0;
#X connect 82 0 81 0;
#X connect 82 0 79 0;
#X connect 83 0 86 0;
#X connect 83 0 84 0;
#X connect 84 0 148 0;
#X connect 84 1 130 0;
#X connect 85 0 84 0;
#X connect 85 0 128 0;
#X connect 87 0 83 0;
#X connect 88 0 87 0;
#X connect 88 0 85 0;
#X connect 89 0 92 0;
#X connect 89 0 90 0;
#X connect 90 0 149 0;
#X connect 90 1 133 0;
#X connect 91 0 90 0;
#X connect 91 0 131 0;
#X connect 93 0 89 0;
#X connect 94 0 93 0;
#X connect 94 0 91 0;
#X connect 95 0 98 0;
#X connect 95 0 96 0;
#X connect 96 0 150 0;
#X connect 96 1 136 0;
#X connect 97 0 96 0;
#X connect 97 0 134 0;
#X connect 99 0 95 0;
#X connect 100 0 99 0;
#X connect 100 0 97 0;
#X connect 101 0 104 0;
#X connect 101 0 102 0;
#X connect 102 0 151 0;
#X connect 102 1 139 0;
#X connect 103 0 102 0;
#X connect 103 0 137 0;
#X connect 105 0 101 0;
#X connect 106 0 105 0;
#X connect 106 0 103 0;
#X connect 107 0 110 0;
#X connect 107 0 108 0;
#X connect 108 0 151 1;
#X connect 108 1 142 0;
#X connect 109 0 108 0;
#X connect 109 0 140 0;
#X connect 111 0 107 0;
#X connect 112 0 111 0;
#X connect 112 0 109 0;
#X connect 114 0 54 0;
#X connect 117 0 60 0;
#X connect 120 0 66 0;
#X connect 123 0 72 0;
#X connect 126 0 78 0;
#X connect 129 0 84 0;
#X connect 132 0 90 0;
#X connect 135 0 96 0;
#X connect 138 0 102 0;
#X connect 141 0 108 0;
#X connect 143 0 48 1;
#X connect 144 0 143 1;
#X connect 145 0 144 1;
#X connect 146 0 145 1;
#X connect 147 0 146 1;
#X connect 148 0 147 1;
#X connect 149 0 148 1;
#X connect 150 0 149 1;
#X connect 151 0 150 1;
#X connect 152 0 153 1;
#X connect 153 0 154 0;
#X connect 154 0 4 0;
#X connect 156 0 157 0;
#X connect 157 0 39 0;
#X connect 157 0 82 0;
#X connect 158 0 159 0;
#X connect 159 0 156 0;
#X connect 161 0 163 0;
#X connect 162 0 158 1;
#X connect 163 0 158 0;
#X restore 1158 170 pd drums;
#X obj 1221 172 bng 15 250 50 0 empty dA_bang empty 17 7 0 10 -262144
-1 -1;
#X obj 1236 172 bng 15 250 50 0 empty dB_bang empty 17 7 0 10 -262144
-1 -1;
#X obj 1251 172 bng 15 250 50 0 empty dC_bang empty 17 7 0 10 -262144
-1 -1;
#X obj 1266 172 bng 15 250 50 0 empty dD_bang empty 17 7 0 10 -262144
-1 -1;
#X obj 1281 172 bng 15 250 50 0 empty dE_bang empty 17 7 0 10 -262144
-1 -1;
#X obj 1296 172 bng 15 250 50 0 empty dF_bang empty 17 7 0 10 -262144
-1 -1;
#X obj 1310 172 bng 15 250 50 0 empty dG_bang empty 17 7 0 10 -262144
-1 -1;
#X obj 1325 172 bng 15 250 50 0 empty dH_bang empty 17 7 0 10 -262144
-1 -1;
#X obj 1340 172 bng 15 250 50 0 empty dI_bang empty 17 7 0 10 -262144
-1 -1;
#X obj 1355 172 bng 15 250 50 0 empty dJ_bang empty 17 7 0 10 -262144
-1 -1;
#X obj 1370 172 bng 15 250 50 0 empty dK_bang empty 17 7 0 10 -262144
-1 -1;
#X text 1144 1017 Drum Kit Enable;
#X obj 1148 1038 tgl 15 0 empty drums_init empty 17 7 0 10 -262144
-1 -1 1 1;
#X obj 1148 1061 s drums_enable;
#X obj 168 865 vsl 25 200 0 2 0 0 drums_vol drums_init_vol Drums 0
-9 0 10 -204800 -66577 -66577 9950 1;
#X obj 1297 619 +~;
#X obj 1446 532 r~ drumkit;
#X obj 1377 1038 tgl 15 0 empty clap_bass_init empty 17 7 0 10 -262144
-1 -1 1 1;
#X text 1373 1017 Clap Bass Hit Enable;
#X obj 1377 1061 s clap_bass_enable;
#X msg 454 -1 \; pd dsp 1 \; piano_init_vol 0.4 \; guitar_init_vol
1 \; flute_init_vol 1 \; bass_init_vol 1 \; elec_init_vol 1 \; drums_init_vol
1 \; piano_vol \; guitar_vol \; flute_vol \; bass_vol \; elec_vol \;
drums_vol \; piano4_init 1 \; guitar4_init 0 \; flute4_init 0 \; bass4_init
0 \; elec4_init 0 \; piano5_init 0 \; guitar5_init 0 \; flute5_init
1 \; bass5_init 0 \; elec5_init 0 \; drums_init 1 \; clap_bass_init
1 \; spectrum_init 1 \;;
#X connect 14 0 16 0;
#X connect 15 0 17 0;
#X connect 16 0 15 0;
#X connect 17 0 21 0;
#X connect 39 0 49 0;
#X connect 40 0 49 0;
#X connect 41 0 49 0;
#X connect 42 0 44 0;
#X connect 42 0 46 1;
#X connect 43 0 42 0;
#X connect 44 0 42 1;
#X connect 45 0 46 0;
#X connect 45 0 42 1;
#X connect 46 0 47 0;
#X connect 47 0 48 0;
#X connect 47 0 100 0;
#X connect 48 0 54 0;
#X connect 49 0 53 0;
#X connect 50 0 49 0;
#X connect 51 0 50 0;
#X connect 52 0 51 0;
#X connect 53 0 45 0;
#X connect 53 1 43 0;
#X connect 54 0 55 0;
#X connect 54 1 56 0;
#X connect 54 2 58 1;
#X connect 54 3 60 0;
#X connect 54 4 61 0;
#X connect 54 5 63 1;
#X connect 54 6 65 0;
#X connect 54 7 66 0;
#X connect 54 8 68 1;
#X connect 54 9 70 0;
#X connect 54 10 71 0;
#X connect 54 11 73 1;
#X connect 54 12 75 0;
#X connect 54 13 76 0;
#X connect 54 14 78 1;
#X connect 54 15 80 0;
#X connect 54 16 81 0;
#X connect 54 17 83 1;
#X connect 55 0 57 0;
#X connect 56 0 57 1;
#X connect 57 0 58 0;
#X connect 58 0 59 0;
#X connect 59 0 91 0;
#X connect 60 0 62 0;
#X connect 61 0 62 1;
#X connect 62 0 63 0;
#X connect 63 0 64 0;
#X connect 64 0 92 0;
#X connect 65 0 67 0;
#X connect 66 0 67 1;
#X connect 67 0 68 0;
#X connect 68 0 69 0;
#X connect 69 0 93 0;
#X connect 70 0 72 0;
#X connect 71 0 72 1;
#X connect 72 0 73 0;
#X connect 73 0 74 0;
#X connect 74 0 94 0;
#X connect 75 0 77 0;
#X connect 76 0 77 1;
#X connect 77 0 78 0;
#X connect 78 0 79 0;
#X connect 79 0 95 0;
#X connect 80 0 82 0;
#X connect 81 0 82 1;
#X connect 82 0 83 0;
#X connect 83 0 84 0;
#X connect 84 0 96 0;
#X connect 97 0 40 0;
#X connect 98 0 39 0;
#X connect 99 0 52 0;
#X connect 103 0 104 0;
#X connect 103 0 105 0;
#X connect 103 0 108 0;
#X connect 104 0 116 0;
#X connect 105 0 115 0;
#X connect 106 0 107 0;
#X connect 107 0 109 0;
#X connect 108 0 117 0;
#X connect 109 0 113 0;
#X connect 112 0 114 0;
#X connect 113 0 112 0;
#X connect 115 0 106 1;
#X connect 116 0 106 0;
#X connect 117 0 107 1;
#X connect 119 0 436 0;
#X connect 139 0 140 0;
#X connect 139 0 142 0;
#X connect 139 0 138 0;
#X connect 139 0 138 1;
#X connect 139 0 144 0;
#X connect 140 0 141 0;
#X connect 142 0 143 0;
#X connect 145 0 144 1;
#X connect 147 0 139 1;
#X connect 149 0 431 0;
#X connect 150 0 234 0;
#X connect 152 0 235 0;
#X connect 154 0 236 0;
#X connect 156 0 237 0;
#X connect 158 0 238 0;
#X connect 160 0 239 0;
#X connect 162 0 240 0;
#X connect 164 0 241 0;
#X connect 166 0 242 0;
#X connect 168 0 243 0;
#X connect 170 0 184 0;
#X connect 171 0 182 0;
#X connect 172 0 180 0;
#X connect 173 0 178 0;
#X connect 174 0 176 0;
#X connect 175 0 174 0;
#X connect 177 0 173 0;
#X connect 179 0 172 0;
#X connect 181 0 171 0;
#X connect 183 0 170 0;
#X connect 189 0 187 0;
#X connect 190 0 188 0;
#X connect 191 0 186 0;
#X connect 193 0 196 0;
#X connect 194 0 197 0;
#X connect 195 0 198 0;
#X connect 202 0 204 0;
#X connect 203 0 205 0;
#X connect 206 0 207 0;
#X connect 207 0 208 0;
#X connect 209 0 210 0;
#X connect 210 0 220 0;
#X connect 211 0 218 0;
#X connect 212 0 216 0;
#X connect 213 0 214 0;
#X connect 215 0 213 0;
#X connect 217 0 212 0;
#X connect 219 0 211 0;
#X connect 221 0 222 0;
#X connect 222 0 223 0;
#X connect 224 0 225 0;
#X connect 225 0 226 0;
#X connect 227 0 228 0;
#X connect 228 0 229 0;
#X connect 232 0 431 1;
#X connect 234 0 151 0;
#X connect 235 0 153 0;
#X connect 236 0 155 0;
#X connect 237 0 157 0;
#X connect 238 0 159 0;
#X connect 239 0 161 0;
#X connect 240 0 163 0;
#X connect 241 0 165 0;
#X connect 242 0 167 0;
#X connect 243 0 169 0;
#X connect 244 0 246 0;
#X connect 245 0 244 0;
#X connect 247 0 288 0;
#X connect 249 0 289 0;
#X connect 251 0 290 0;
#X connect 254 0 291 0;
#X connect 255 0 292 0;
#X connect 257 0 293 0;
#X connect 259 0 294 0;
#X connect 261 0 295 0;
#X connect 263 0 296 0;
#X connect 265 0 297 0;
#X connect 267 0 298 0;
#X connect 269 0 299 0;
#X connect 271 0 300 0;
#X connect 273 0 301 0;
#X connect 275 0 302 0;
#X connect 277 0 303 0;
#X connect 279 0 304 0;
#X connect 281 0 305 0;
#X connect 283 0 306 0;
#X connect 285 0 307 0;
#X connect 287 0 308 0;
#X connect 288 0 248 0;
#X connect 289 0 250 0;
#X connect 290 0 252 0;
#X connect 291 0 253 0;
#X connect 292 0 256 0;
#X connect 293 0 258 0;
#X connect 294 0 260 0;
#X connect 295 0 262 0;
#X connect 296 0 264 0;
#X connect 297 0 266 0;
#X connect 298 0 268 0;
#X connect 299 0 270 0;
#X connect 300 0 272 0;
#X connect 301 0 274 0;
#X connect 302 0 276 0;
#X connect 303 0 278 0;
#X connect 304 0 280 0;
#X connect 305 0 282 0;
#X connect 306 0 284 0;
#X connect 307 0 286 0;
#X connect 308 0 324 0;
#X connect 309 0 326 0;
#X connect 310 0 328 0;
#X connect 312 0 314 0;
#X connect 313 0 315 0;
#X connect 318 0 149 1;
#X connect 319 0 149 0;
#X connect 321 0 232 0;
#X connect 325 0 309 0;
#X connect 327 0 310 0;
#X connect 382 0 384 0;
#X connect 384 0 383 0;
#X connect 385 0 386 0;
#X connect 386 0 387 0;
#X connect 388 0 389 0;
#X connect 389 0 390 0;
#X connect 391 0 392 0;
#X connect 392 0 393 0;
#X connect 394 0 395 0;
#X connect 395 0 396 0;
#X connect 397 0 398 0;
#X connect 398 0 399 0;
#X connect 400 0 401 0;
#X connect 401 0 402 0;
#X connect 403 0 404 0;
#X connect 404 0 405 0;
#X connect 406 0 407 0;
#X connect 407 0 408 0;
#X connect 409 0 410 0;
#X connect 410 0 411 0;
#X connect 412 0 413 0;
#X connect 413 0 414 0;
#X connect 428 0 429 0;
#X connect 431 0 139 0;
#X connect 432 0 232 1;
#X connect 433 0 435 0;
#X coords 0 0 1 1 256 100 0;
